<svg width="144" height="134" viewBox="0 0 144 134" fill="none" xmlns="http://www.w3.org/2000/svg">
<path d="M55.3226 2.00228L55.3138 2.00221C49.8543 1.95409 45.1019 2.69332 40.4997 4.1991C17.2274 11.8415 3.81878 35.6128 9.17337 59.7327L55.3226 2.00228ZM55.3226 2.00228H55.3314M55.3226 2.00228H55.3314M55.3314 2.00228C76.1773 2.00228 94.8605 16.425 100.174 37.3853L100.174 37.386M55.3314 2.00228L100.174 37.386M100.174 37.386C103.347 49.8813 101.632 61.7768 95.163 72.9746L95.1602 72.9794M100.174 37.386L95.1602 72.9794M95.1602 72.9794C94.8353 73.5454 94.4521 74.3777 94.6022 75.372C94.7493 76.3455 95.3436 77.0186 95.7537 77.4314L95.7564 77.4341M95.1602 72.9794L95.7564 77.4341M95.7564 77.4341C105.052 86.7555 114.328 96.0908 123.606 105.429C127.583 109.432 131.561 113.435 135.541 117.438M95.7564 77.4341L135.541 117.438M83.1762 90.7466L83.1794 90.7498C96.3202 104.036 109.491 117.283 122.664 130.531L122.666 130.533M83.1762 90.7466L122.666 130.533M83.1762 90.7466C82.6936 90.2609 81.9538 89.5965 80.9024 89.4258M83.1762 90.7466L80.9024 89.4258M122.666 130.533C123.866 131.737 124.645 131.997 125.129 132C125.605 132.003 126.368 131.76 127.546 130.574L131.549 126.545L135.551 122.516C136.727 121.333 137.001 120.522 137 119.983C136.999 119.442 136.723 118.627 135.541 117.438M122.666 130.533L135.541 117.438M80.9024 89.4258C79.8112 89.2487 78.885 89.6752 78.2107 90.0748M80.9024 89.4258L78.2107 90.0748M78.2107 90.0748C51.1061 106.018 16.0448 90.623 9.17354 59.7335L78.2107 90.0748ZM54.7671 84.6114H54.7682C74.2908 84.5902 90.0395 68.7296 89.9869 49.149C89.9344 29.6664 74.1511 13.8172 54.7462 13.8172C35.2909 13.8172 19.4528 29.7693 19.5054 49.2796L19.5054 49.2807C19.5684 68.7724 35.3612 84.622 54.7671 84.6114Z" stroke="#FF8F33" stroke-width="4"/>
</svg>
