<svg width="133" height="134" viewBox="0 0 133 134" fill="none" xmlns="http://www.w3.org/2000/svg">
<path d="M49.3314 0.00228325C71.1051 0.00228325 90.5773 15.0584 96.1125 36.8938C99.4158 49.9032 97.6203 62.3335 90.8948 73.9751C90.3789 74.8736 90.4782 75.3229 91.1725 76.0218C104.455 89.3407 117.698 102.69 130.96 116.028C133.678 118.764 133.678 121.2 130.97 123.926C128.302 126.612 125.633 129.297 122.965 131.983C120.277 134.689 117.966 134.669 115.248 131.943C102.074 118.694 88.9009 105.445 75.7574 92.1563C74.8845 91.2776 74.3389 91.1379 73.2279 91.7968C44.937 108.44 8.38307 92.3659 1.22108 60.1669C-4.35377 35.0567 9.61311 10.266 33.8766 2.29864C38.6975 0.721144 43.6673 -0.0476376 49.3314 0.00228325ZM48.766 82.6114C67.1769 82.5914 82.0365 67.6351 81.9869 49.1544C81.9373 30.7635 67.038 15.8172 48.7462 15.8172C30.4047 15.8172 15.4558 30.8634 15.5054 49.2742C15.5649 67.675 30.4741 82.6214 48.766 82.6114Z" fill="#FF8F33"/>
</svg>
