<svg width="134" height="134" viewBox="0 0 134 134" fill="none" xmlns="http://www.w3.org/2000/svg">
<mask id="path-1-inside-1_485_597" fill="white">
<path d="M96.7921 48.292C96.696 58.4864 93.9267 67.5967 88.3121 75.8041C87.6996 76.6981 87.7399 77.1809 88.5289 77.8872C89.8297 79.0517 91.0255 80.3324 92.2392 81.5908C92.6035 81.9685 92.8806 82.0266 93.3858 81.7964C96.2244 80.5112 99.0809 81.041 101.271 83.2291C110.802 92.7418 120.339 102.248 129.845 111.783C135.73 117.686 135.124 126.653 128.562 131.575C124.215 134.834 117.775 134.809 113.468 131.497C112.762 130.953 112.091 130.359 111.461 129.729C102.246 120.533 93.0572 111.309 83.8172 102.138C81.2401 99.5813 80.136 96.7851 81.7654 93.3095C81.9219 92.9765 81.8615 92.7641 81.6201 92.525C80.1449 91.0543 78.6586 89.5948 77.2147 88.095C76.6716 87.5317 76.3475 88.0123 75.9943 88.2604C72.3555 90.8285 68.4374 92.9117 64.1996 94.2214C45.2145 100.093 28.3304 96.3672 14.0033 82.5094C5.5501 74.3334 1.10444 64.0965 0.161224 52.389C-1.69839 29.3091 12.6891 8.14034 35.0425 2.01165C53.1939 -2.96596 69.4007 1.31876 82.8517 14.5887C92.2392 23.851 96.5619 35.4177 96.7921 48.292ZM49.3003 94.7065C74.4923 94.2974 94.9995 73.2382 94.5972 48.1937C94.1748 22.0517 73.3971 1.81943 47.2149 2.31115C21.0775 2.80064 1.14244 24.9864 2.19295 50.3796C3.22334 75.2229 23.7328 95.187 49.3003 94.7065ZM131.687 120.026C131.678 118.184 130.578 115.625 128.455 113.504C119.941 104.986 111.419 96.4789 102.925 87.9408C102.326 87.3373 102.031 87.3663 101.452 87.9519C96.9597 92.4982 92.4448 97.0265 87.8896 101.512C87.1811 102.21 87.3241 102.532 87.9455 103.144C92.2034 107.348 96.4211 111.593 100.654 115.824C104.939 120.106 109.184 124.434 113.524 128.658C116.859 131.903 120.835 132.657 125.149 130.978C129.123 129.436 131.685 125.459 131.687 120.026ZM96.3786 83.3208C94.8475 83.3029 93.7143 83.9265 92.7287 84.9144C90.1091 87.5451 87.4649 90.1535 84.8566 92.7954C82.5857 95.0954 82.6438 97.7015 84.8744 100.064C85.4802 100.706 85.7685 100.596 86.3161 100.033C88.8574 97.4288 91.4479 94.8719 94.0183 92.297C96.0389 90.2742 98.0616 88.2537 100.073 86.222C100.292 86.0007 100.759 85.8286 100.308 85.3592C99.1993 84.2059 97.9924 83.2671 96.3786 83.3208ZM86.2289 78.6807C86.1172 78.817 86.0077 78.9489 85.9004 79.0808C83.8463 81.5841 81.5978 83.8952 79.0631 85.9158C78.6094 86.2778 78.6698 86.4924 79.0386 86.8545C80.3372 88.1285 81.6224 89.4159 82.883 90.7257C83.2428 91.099 83.4619 91.1392 83.8485 90.7481C86.0881 88.4727 88.3434 86.2153 90.6165 83.9734C91.0143 83.5823 90.9562 83.3632 90.5896 83.0034C89.2866 81.7338 88.017 80.4308 86.7341 79.1433C86.6044 79.0092 86.4614 78.8908 86.2289 78.6807Z"/>
</mask>
<path d="M96.7921 48.292C96.696 58.4864 93.9267 67.5967 88.3121 75.8041C87.6996 76.6981 87.7399 77.1809 88.5289 77.8872C89.8297 79.0517 91.0255 80.3324 92.2392 81.5908C92.6035 81.9685 92.8806 82.0266 93.3858 81.7964C96.2244 80.5112 99.0809 81.041 101.271 83.2291C110.802 92.7418 120.339 102.248 129.845 111.783C135.73 117.686 135.124 126.653 128.562 131.575C124.215 134.834 117.775 134.809 113.468 131.497C112.762 130.953 112.091 130.359 111.461 129.729C102.246 120.533 93.0572 111.309 83.8172 102.138C81.2401 99.5813 80.136 96.7851 81.7654 93.3095C81.9219 92.9765 81.8615 92.7641 81.6201 92.525C80.1449 91.0543 78.6586 89.5948 77.2147 88.095C76.6716 87.5317 76.3475 88.0123 75.9943 88.2604C72.3555 90.8285 68.4374 92.9117 64.1996 94.2214C45.2145 100.093 28.3304 96.3672 14.0033 82.5094C5.5501 74.3334 1.10444 64.0965 0.161224 52.389C-1.69839 29.3091 12.6891 8.14034 35.0425 2.01165C53.1939 -2.96596 69.4007 1.31876 82.8517 14.5887C92.2392 23.851 96.5619 35.4177 96.7921 48.292ZM49.3003 94.7065C74.4923 94.2974 94.9995 73.2382 94.5972 48.1937C94.1748 22.0517 73.3971 1.81943 47.2149 2.31115C21.0775 2.80064 1.14244 24.9864 2.19295 50.3796C3.22334 75.2229 23.7328 95.187 49.3003 94.7065ZM131.687 120.026C131.678 118.184 130.578 115.625 128.455 113.504C119.941 104.986 111.419 96.4789 102.925 87.9408C102.326 87.3373 102.031 87.3663 101.452 87.9519C96.9597 92.4982 92.4448 97.0265 87.8896 101.512C87.1811 102.21 87.3241 102.532 87.9455 103.144C92.2034 107.348 96.4211 111.593 100.654 115.824C104.939 120.106 109.184 124.434 113.524 128.658C116.859 131.903 120.835 132.657 125.149 130.978C129.123 129.436 131.685 125.459 131.687 120.026ZM96.3786 83.3208C94.8475 83.3029 93.7143 83.9265 92.7287 84.9144C90.1091 87.5451 87.4649 90.1535 84.8566 92.7954C82.5857 95.0954 82.6438 97.7015 84.8744 100.064C85.4802 100.706 85.7685 100.596 86.3161 100.033C88.8574 97.4288 91.4479 94.8719 94.0183 92.297C96.0389 90.2742 98.0616 88.2537 100.073 86.222C100.292 86.0007 100.759 85.8286 100.308 85.3592C99.1993 84.2059 97.9924 83.2671 96.3786 83.3208ZM86.2289 78.6807C86.1172 78.817 86.0077 78.9489 85.9004 79.0808C83.8463 81.5841 81.5978 83.8952 79.0631 85.9158C78.6094 86.2778 78.6698 86.4924 79.0386 86.8545C80.3372 88.1285 81.6224 89.4159 82.883 90.7257C83.2428 91.099 83.4619 91.1392 83.8485 90.7481C86.0881 88.4727 88.3434 86.2153 90.6165 83.9734C91.0143 83.5823 90.9562 83.3632 90.5896 83.0034C89.2866 81.7338 88.017 80.4308 86.7341 79.1433C86.6044 79.0092 86.4614 78.8908 86.2289 78.6807Z" fill="#FF8F33"/>
<path d="M96.7921 48.292L100.792 48.3297L100.792 48.2751L100.791 48.2205L96.7921 48.292ZM88.3121 75.8041L91.6121 78.0646L91.6135 78.0625L88.3121 75.8041ZM88.5289 77.8872L91.1968 74.9069L91.1968 74.9069L88.5289 77.8872ZM92.2392 81.5908L89.3601 84.3676L89.3601 84.3677L92.2392 81.5908ZM93.3858 81.7964L91.736 78.1525L91.7269 78.1566L93.3858 81.7964ZM101.271 83.2291L98.4443 86.059L98.4455 86.0602L101.271 83.2291ZM129.845 111.783L127.012 114.607L127.012 114.607L129.845 111.783ZM128.562 131.575L130.961 134.775L130.962 134.775L128.562 131.575ZM113.468 131.497L115.907 128.326L115.907 128.326L113.468 131.497ZM111.461 129.729L114.29 126.9L114.287 126.897L111.461 129.729ZM83.8172 102.138L86.635 99.2992L86.6346 99.2987L83.8172 102.138ZM81.7654 93.3095L78.145 91.6087L78.1436 91.6116L81.7654 93.3095ZM81.6201 92.525L78.796 95.3577L78.8049 95.3665L81.6201 92.525ZM77.2147 88.095L80.0963 85.3208L80.0941 85.3184L77.2147 88.095ZM75.9943 88.2604L73.6949 84.9873L73.6878 84.9923L75.9943 88.2604ZM64.1996 94.2214L63.0184 90.3998L63.0177 90.4L64.1996 94.2214ZM14.0033 82.5094L16.7843 79.6343L16.7842 79.6343L14.0033 82.5094ZM0.161224 52.389L4.14831 52.0678L4.1483 52.0677L0.161224 52.389ZM35.0425 2.01165L36.1001 5.86928L36.1003 5.86923L35.0425 2.01165ZM82.8517 14.5887L85.661 11.7413L85.6609 11.7411L82.8517 14.5887ZM49.3003 94.7065L49.2354 90.707L49.2251 90.7072L49.3003 94.7065ZM94.5972 48.1937L98.5967 48.1294L98.5967 48.129L94.5972 48.1937ZM47.2149 2.31115L47.2898 6.31045L47.2901 6.31045L47.2149 2.31115ZM2.19295 50.3796L-1.80363 50.5449L-1.80362 50.5454L2.19295 50.3796ZM131.687 120.026L135.687 120.028L135.687 120.017L135.687 120.006L131.687 120.026ZM128.455 113.504L125.626 116.331L125.628 116.334L128.455 113.504ZM102.925 87.9408L100.086 90.7587L100.089 90.7618L102.925 87.9408ZM101.452 87.9519L98.6077 85.1398L98.6072 85.1403L101.452 87.9519ZM87.8896 101.512L90.6955 104.363L90.6963 104.362L87.8896 101.512ZM87.9455 103.144L90.7559 100.298L90.7534 100.295L87.9455 103.144ZM100.654 115.824L103.482 112.995L103.482 112.995L100.654 115.824ZM113.524 128.658L110.734 131.524L110.734 131.525L113.524 128.658ZM125.149 130.978L123.702 127.249L123.699 127.25L125.149 130.978ZM96.3786 83.3208L96.3319 87.3205L96.4217 87.3216L96.5115 87.3186L96.3786 83.3208ZM92.7287 84.9144L89.897 82.0892L89.8942 82.092L92.7287 84.9144ZM84.8566 92.7954L87.7029 95.6058L87.703 95.6058L84.8566 92.7954ZM84.8744 100.064L81.966 102.81L81.9661 102.81L84.8744 100.064ZM86.3161 100.033L83.4535 97.2389L83.4481 97.2444L86.3161 100.033ZM94.0183 92.297L91.1883 89.4701L91.1874 89.471L94.0183 92.297ZM100.073 86.222L102.916 89.0363L102.916 89.036L100.073 86.222ZM100.308 85.3592L97.4242 88.1312L97.4251 88.1322L100.308 85.3592ZM86.2289 78.6807L88.9111 75.7132L85.7966 72.8982L83.1354 76.145L86.2289 78.6807ZM85.9004 79.0808L88.9926 81.6181L88.9979 81.6116L89.0032 81.6051L85.9004 79.0808ZM79.0631 85.9158L76.5697 82.788L76.5681 82.7893L79.0631 85.9158ZM79.0386 86.8545L76.2362 89.7088L76.2373 89.7098L79.0386 86.8545ZM82.883 90.7257L80.0009 93.4995L80.0033 93.5019L82.883 90.7257ZM83.8485 90.7481L86.6932 93.5602L86.6993 93.554L83.8485 90.7481ZM90.6165 83.9734L87.8122 81.1211L87.8077 81.1255L90.6165 83.9734ZM90.5896 83.0034L93.3918 80.149L93.3864 80.1436L93.381 80.1383L90.5896 83.0034ZM86.7341 79.1433L83.8581 81.9234L83.8792 81.9453L83.9007 81.9668L86.7341 79.1433ZM92.7923 48.2543C92.7033 57.6932 90.1566 66.0233 85.0106 73.5456L91.6135 78.0625C97.6967 69.1702 100.689 59.2796 100.792 48.3297L92.7923 48.2543ZM85.012 73.5436C84.6067 74.1354 83.7332 75.5019 83.9148 77.3147C84.1025 79.1876 85.2856 80.3525 85.8609 80.8675L91.1968 74.9069C90.9831 74.7156 91.7517 75.286 91.875 76.5173C91.9352 77.1185 91.8083 77.5878 91.7099 77.8436C91.6239 78.0671 91.5483 78.1576 91.6121 78.0646L85.012 73.5436ZM85.8609 80.8675C87.0216 81.9065 88.0807 83.0411 89.3601 84.3676L95.1183 78.814C93.9703 77.6237 92.6378 76.1969 91.1968 74.9069L85.8609 80.8675ZM89.3601 84.3677C89.7708 84.7935 90.6476 85.5984 92.0311 85.8547C93.3984 86.108 94.5014 85.6838 95.0446 85.4362L91.7269 78.1566C91.765 78.1392 92.4769 77.8012 93.4882 77.9885C94.5158 78.1789 95.0718 78.7658 95.1182 78.8139L89.3601 84.3677ZM95.0356 85.4403C96.353 84.8439 97.4276 85.0434 98.4443 86.059L104.098 80.3993C100.734 77.0385 96.0957 76.1786 91.736 78.1525L95.0356 85.4403ZM98.4455 86.0602C107.979 95.5756 117.511 105.076 127.012 114.607L132.678 108.959C123.167 99.4191 113.625 89.908 104.097 80.3981L98.4455 86.0602ZM127.012 114.607C131.216 118.823 130.739 124.942 126.162 128.375L130.962 134.775C139.51 128.364 140.244 116.548 132.678 108.959L127.012 114.607ZM126.163 128.374C123.245 130.562 118.783 130.538 115.907 128.326L111.03 134.667C116.767 139.08 125.185 139.105 130.961 134.775L126.163 128.374ZM115.907 128.326C115.348 127.896 114.807 127.417 114.29 126.9L108.633 132.557C109.376 133.3 110.176 134.011 111.03 134.667L115.907 128.326ZM114.287 126.897C105.084 117.714 95.879 108.474 86.635 99.2992L80.9995 104.977C90.2354 114.144 99.408 123.352 108.636 132.56L114.287 126.897ZM86.6346 99.2987C85.6297 98.3017 85.2186 97.5524 85.0742 97.0204C84.9581 96.5931 84.923 95.9975 85.3871 95.0074L78.1436 91.6116C76.9784 94.0972 76.6806 96.6375 77.3536 99.1164C77.9982 101.491 79.4277 103.418 80.9999 104.978L86.6346 99.2987ZM85.3858 95.0104C85.6791 94.3861 86.0205 93.3393 85.7595 92.074C85.5074 90.8518 84.8199 90.0644 84.4354 89.6834L78.8049 95.3665C78.6617 95.2247 78.1251 94.6631 77.9244 93.6901C77.7148 92.674 78.0082 91.8999 78.145 91.6087L85.3858 95.0104ZM84.4442 89.6923C82.9401 88.1926 81.5026 86.7815 80.0963 85.3208L74.3331 90.8692C75.8146 92.408 77.3498 93.9159 78.796 95.3577L84.4442 89.6923ZM80.0941 85.3184C79.6472 84.855 78.9238 84.2662 77.886 83.9863C76.7592 83.6824 75.7405 83.8693 74.9899 84.1832C74.3455 84.4527 73.8904 84.8215 73.7521 84.9326C73.4494 85.1758 73.6479 85.0204 73.6949 84.9874L78.2937 91.5334C78.5173 91.3764 78.8887 91.0678 78.7631 91.1687C78.761 91.1704 78.7455 91.1829 78.7207 91.2015C78.6957 91.2202 78.6559 91.2491 78.6037 91.2837C78.5039 91.3499 78.3244 91.4601 78.0766 91.5637C77.5191 91.7969 76.7053 91.9537 75.803 91.7104C74.9898 91.4911 74.5106 91.0533 74.3353 90.8715L80.0941 85.3184ZM73.6878 84.9923C70.3186 87.3702 66.776 89.2385 63.0184 90.3998L65.3808 98.0431C70.0988 96.5849 74.3925 94.2868 78.3008 91.5284L73.6878 84.9923ZM63.0177 90.4C45.3784 95.8555 30.0258 92.442 16.7843 79.6343L11.2224 85.3846C26.635 100.292 45.0506 104.331 65.3815 98.0429L63.0177 90.4ZM16.7842 79.6343C9.09347 72.1957 5.02077 62.8971 4.14831 52.0678L-3.82586 52.7102C-2.81188 65.296 2.00672 76.4711 11.2224 85.3846L16.7842 79.6343ZM4.1483 52.0677C2.43839 30.8459 15.6559 11.4745 36.1001 5.86928L33.9848 -1.84599C9.72227 4.80614 -5.83517 27.7724 -3.82585 52.7102L4.1483 52.0677ZM36.1003 5.86923C52.8626 1.27256 67.5989 5.16006 80.0425 17.4362L85.6609 11.7411C71.2026 -2.52254 53.5251 -7.20448 33.9846 -1.84593L36.1003 5.86923ZM80.0423 17.436C88.5997 25.8793 92.5789 36.4072 92.7927 48.3635L100.791 48.2205C100.545 34.4283 95.8787 21.8227 85.661 11.7413L80.0423 17.436ZM49.3652 98.7059C76.744 98.2614 99.0348 75.4043 98.5967 48.1294L90.5977 48.2579C90.9642 71.072 72.2407 90.3335 49.2354 90.707L49.3652 98.7059ZM98.5967 48.129C98.1388 19.7911 75.5517 -2.22174 47.1398 -1.68814L47.2901 6.31045C71.2425 5.8606 90.2108 24.3124 90.5977 48.2583L98.5967 48.129ZM47.14 -1.68815C18.6891 -1.15533 -2.94403 22.979 -1.80363 50.5449L6.18953 50.2143C5.22891 26.9939 23.4658 6.75662 47.2898 6.31045L47.14 -1.68815ZM-1.80362 50.5454C-0.684667 77.5239 21.598 99.2278 49.3755 98.7058L49.2251 90.7072C25.8676 91.1462 7.13134 72.9219 6.18951 50.2138L-1.80362 50.5454ZM135.687 120.006C135.671 116.841 133.937 113.326 131.282 110.674L125.628 116.334C126.371 117.076 126.91 117.873 127.253 118.592C127.611 119.342 127.686 119.857 127.687 120.045L135.687 120.006ZM131.284 110.676C122.766 102.154 114.25 93.6535 105.761 85.1198L100.089 90.7618C108.587 99.3044 117.117 107.818 125.626 116.331L131.284 110.676ZM105.764 85.1229C105.464 84.82 104.16 83.4544 102.09 83.5015C100.093 83.5469 98.846 84.8987 98.6077 85.1398L104.297 90.764C104.366 90.6939 104.249 90.8276 103.996 90.9893C103.708 91.1731 103.109 91.4804 102.272 91.4994C101.423 91.5187 100.79 91.2312 100.457 91.0302C100.168 90.856 100.031 90.703 100.086 90.7587L105.764 85.1229ZM98.6072 85.1403C94.1225 89.6785 89.6211 94.1932 85.083 98.6624L90.6963 104.362C95.2685 99.8598 99.7969 95.3178 104.297 90.7635L98.6072 85.1403ZM85.0838 98.6616C84.6538 99.0848 83.2117 100.529 83.4394 102.765C83.5461 103.813 83.989 104.584 84.3064 105.034C84.6105 105.466 84.947 105.805 85.1376 105.993L90.7534 100.295C90.6333 100.177 90.7189 100.246 90.8436 100.423C90.9816 100.619 91.3164 101.151 91.3983 101.955C91.4864 102.82 91.2352 103.51 91.0091 103.917C90.8198 104.258 90.6411 104.417 90.6955 104.363L85.0838 98.6616ZM85.1351 105.99C89.3815 110.183 93.5804 114.409 97.8267 118.653L103.482 112.995C99.2617 108.777 95.0253 104.513 90.7559 100.298L85.1351 105.99ZM97.8267 118.653C102.073 122.897 106.369 127.276 110.734 131.524L116.314 125.791C111.998 121.591 107.805 117.315 103.482 112.995L97.8267 118.653ZM110.734 131.525C112.874 133.606 115.379 135.034 118.196 135.589C121.009 136.143 123.856 135.773 126.6 134.706L123.699 127.25C122.128 127.861 120.83 127.954 119.743 127.74C118.66 127.527 117.51 126.955 116.314 125.791L110.734 131.525ZM126.596 134.707C132.416 132.448 135.684 126.755 135.687 120.028L127.687 120.024C127.685 124.164 125.83 126.423 123.702 127.249L126.596 134.707ZM96.4253 79.321C93.5608 79.2876 91.4434 80.5393 89.897 82.0892L95.5603 87.7396C95.8117 87.4876 95.9644 87.4005 96.0314 87.3695C96.0758 87.3489 96.1498 87.3184 96.3319 87.3205L96.4253 79.321ZM89.8942 82.092C87.3185 84.6787 84.6163 87.3455 82.0101 89.9851L87.703 95.6058C90.3136 92.9616 92.8996 90.4116 95.5631 87.7368L89.8942 82.092ZM82.0102 89.9851C80.3281 91.6887 79.1579 93.8857 79.1776 96.4371C79.197 98.9576 80.3728 101.123 81.966 102.81L87.7829 97.318C87.4672 96.9836 87.3127 96.7291 87.2409 96.5741C87.2058 96.4983 87.1906 96.4467 87.1839 96.4184C87.1775 96.391 87.1773 96.378 87.1773 96.3755C87.1773 96.3732 87.1772 96.3671 87.1805 96.3526C87.1838 96.3375 87.1933 96.3022 87.2196 96.2453C87.273 96.1296 87.4035 95.9091 87.7029 95.6058L82.0102 89.9851ZM81.9661 102.81C82.3155 103.18 83.71 104.669 85.9416 104.487C87.004 104.401 87.7866 103.959 88.2389 103.642C88.6712 103.34 89.0042 103.006 89.1841 102.821L83.4481 97.2444C83.3542 97.3411 83.4458 97.2323 83.6511 97.0885C83.8764 96.9309 84.4464 96.5822 85.2925 96.5134C86.1945 96.4399 86.901 96.7225 87.3084 96.9625C87.6537 97.1659 87.8206 97.3579 87.7828 97.3178L81.9661 102.81ZM89.1787 102.827C91.6993 100.244 94.2507 97.726 96.8492 95.123L91.1874 89.471C88.6451 92.0178 86.0156 94.6137 83.4535 97.2389L89.1787 102.827ZM96.8483 95.1239C98.8644 93.1055 100.896 91.0761 102.916 89.0363L97.2308 83.4076C95.2272 85.4312 93.2133 87.4429 91.1883 89.4701L96.8483 95.1239ZM102.916 89.036C102.763 89.1901 102.519 89.3815 102.78 89.1708C102.86 89.1061 103.345 88.7295 103.753 88.1287C104.256 87.3868 104.677 86.2539 104.422 84.9138C104.202 83.7576 103.573 82.9833 103.191 82.5862L97.4251 88.1322C97.2689 87.9698 96.7502 87.393 96.5629 86.408C96.3407 85.2391 96.7161 84.2511 97.1315 83.6385C97.3111 83.3737 97.4855 83.1935 97.582 83.1002C97.6337 83.0503 97.6762 83.0126 97.7033 82.9893C97.7301 82.9661 97.7487 82.9511 97.7516 82.9488C97.8771 82.8473 97.4926 83.1432 97.2305 83.4079L102.916 89.036ZM103.192 82.5872C101.947 81.2922 99.677 79.2089 96.2457 79.323L96.5115 87.3186C96.502 87.3189 96.4772 87.3169 96.4549 87.3107C96.4375 87.3059 96.4589 87.3087 96.5268 87.3481C96.6932 87.4445 96.9692 87.6579 97.4242 88.1312L103.192 82.5872ZM83.1354 76.145C83.0502 76.2488 82.9061 76.4229 82.7975 76.5564L89.0032 81.6051C89.1092 81.4749 89.1841 81.3852 89.3225 81.2164L83.1354 76.145ZM82.8081 76.5434C80.8953 78.8746 78.8432 80.9756 76.5697 82.788L81.5565 89.0435C84.3523 86.8148 86.7972 84.2936 88.9926 81.6181L82.8081 76.5434ZM76.5681 82.7893C76.2553 83.0389 74.6753 84.2832 74.7443 86.5091C74.7771 87.5653 75.1848 88.3534 75.4808 88.8037C75.7644 89.2349 76.0746 89.5501 76.2362 89.7088L81.8409 84.0002C81.8424 84.0017 81.8759 84.0344 81.926 84.0917C81.9749 84.1476 82.0644 84.255 82.1652 84.4083C82.3604 84.7052 82.7122 85.3491 82.7405 86.2612C82.7704 87.2262 82.4248 87.9728 82.119 88.4204C81.8528 88.8101 81.5911 89.016 81.5582 89.0422L76.5681 82.7893ZM76.2373 89.7098C77.5166 90.9649 78.7736 92.2243 80.0009 93.4995L85.765 87.9519C84.4711 86.6076 83.1577 85.2921 81.8398 83.9992L76.2373 89.7098ZM80.0033 93.5019C80.1894 93.695 81.2995 94.9205 83.1447 95.018C85.1371 95.1232 86.3822 93.8748 86.6932 93.5602L81.0039 87.9359C81.0356 87.9039 81.2472 87.6882 81.6208 87.4776C82.0431 87.2395 82.7181 86.9843 83.5667 87.0291C84.3907 87.0727 84.9904 87.3795 85.3107 87.5876C85.4689 87.6904 85.5821 87.7837 85.6469 87.8404C85.7125 87.8979 85.7527 87.9392 85.7626 87.9495L80.0033 93.5019ZM86.6993 93.554C88.925 91.2928 91.1662 89.0493 93.4252 86.8214L87.8077 81.1255C85.5205 83.3812 83.2513 85.6527 80.9978 87.9421L86.6993 93.554ZM93.4208 86.8258C93.7669 86.4855 95.024 85.214 94.8795 83.1917C94.7511 81.3943 93.5503 80.3045 93.3918 80.149L87.7874 85.8578C87.7829 85.8533 87.7477 85.8188 87.6966 85.7601C87.6462 85.7023 87.5593 85.5972 87.4619 85.4489C87.2676 85.1534 86.9578 84.573 86.8999 83.7617C86.8392 82.9129 87.0823 82.2231 87.3292 81.7754C87.546 81.3825 87.773 81.1596 87.8122 81.1211L93.4208 86.8258ZM93.381 80.1383C92.1051 78.8953 90.8938 77.6509 89.5674 76.3198L83.9007 81.9668C85.1402 83.2106 86.468 84.5724 87.7983 85.8684L93.381 80.1383ZM89.61 76.3633C89.4451 76.1926 89.2929 76.0543 89.1903 75.9622C89.1406 75.9177 89.0843 75.8679 89.0441 75.8322C88.9992 75.7923 88.9566 75.7543 88.9111 75.7132L83.5468 81.6482C83.6175 81.7121 83.6799 81.7677 83.7313 81.8133C83.7874 81.8631 83.8185 81.8906 83.8498 81.9188C83.9092 81.972 83.8934 81.96 83.8581 81.9234L89.61 76.3633Z" fill="#FF8F33" mask="url(#path-1-inside-1_485_597)"/>
<mask id="path-3-inside-2_485_597" fill="white">
<path d="M48.5135 9.6488C69.5728 9.63092 87.4537 26.781 87.2168 49.0003C86.991 70.4015 69.2598 87.6298 48.0553 87.3661C26.4953 87.0979 8.79319 69.389 9.54196 47.0244C10.2192 26.8257 26.9736 9.47222 48.5135 9.6488ZM48.4799 11.8124C28.156 11.6649 12.4655 27.9634 11.7413 46.9038C10.9478 67.6792 26.8731 84.3777 46.9131 85.1109C67.5567 85.8663 84.0049 70.102 84.9884 50.3794C86.05 29.1189 69.1771 11.8482 48.4799 11.8124Z"/>
</mask>
<path d="M48.5135 9.6488C69.5728 9.63092 87.4537 26.781 87.2168 49.0003C86.991 70.4015 69.2598 87.6298 48.0553 87.3661C26.4953 87.0979 8.79319 69.389 9.54196 47.0244C10.2192 26.8257 26.9736 9.47222 48.5135 9.6488ZM48.4799 11.8124C28.156 11.6649 12.4655 27.9634 11.7413 46.9038C10.9478 67.6792 26.8731 84.3777 46.9131 85.1109C67.5567 85.8663 84.0049 70.102 84.9884 50.3794C86.05 29.1189 69.1771 11.8482 48.4799 11.8124Z" fill="#FF8F33"/>
<path d="M48.5135 9.6488L48.4807 13.6487L48.4988 13.6488L48.5169 13.6488L48.5135 9.6488ZM87.2168 49.0003L83.217 48.9576L83.217 48.9581L87.2168 49.0003ZM48.0553 87.3661L48.0055 91.3658L48.0055 91.3658L48.0553 87.3661ZM9.54196 47.0244L5.5442 46.8904L5.5442 46.8906L9.54196 47.0244ZM48.4799 11.8124L48.4509 15.8123L48.462 15.8124L48.473 15.8124L48.4799 11.8124ZM11.7413 46.9038L7.74423 46.7509L7.74423 46.7511L11.7413 46.9038ZM46.9131 85.1109L47.0594 81.1135L47.0594 81.1135L46.9131 85.1109ZM84.9884 50.3794L80.9933 50.1799L80.9933 50.1801L84.9884 50.3794ZM48.5169 13.6488C67.3919 13.6328 83.4297 29.008 83.217 48.9576L91.2166 49.0429C91.4777 24.554 71.7536 5.62906 48.5101 5.6488L48.5169 13.6488ZM83.217 48.9581C83.0146 68.147 67.0981 83.6026 48.105 83.3664L48.0055 91.3658C71.4216 91.657 90.9675 72.6561 91.2166 49.0425L83.217 48.9581ZM48.105 83.3664C28.7342 83.1254 12.8677 67.2297 13.5397 47.1583L5.5442 46.8906C4.71866 71.5484 24.2564 91.0703 48.0055 91.3658L48.105 83.3664ZM13.5397 47.1585C14.1472 29.0396 29.1981 13.4906 48.4807 13.6487L48.5463 5.64893C24.7492 5.45385 6.29118 24.6118 5.5442 46.8904L13.5397 47.1585ZM48.509 7.8125C25.9303 7.64861 8.54734 25.7463 7.74423 46.7509L15.7384 47.0566C16.3836 30.1805 30.3818 15.6811 48.4509 15.8123L48.509 7.8125ZM7.74423 46.7511C6.86593 69.7475 24.5276 88.2946 46.7669 89.1082L47.0594 81.1135C29.2185 80.4609 15.0298 65.6108 15.7384 47.0564L7.74423 46.7511ZM46.7668 89.1082C69.6338 89.945 87.8928 72.4505 88.9834 50.5786L80.9933 50.1801C80.117 67.7536 65.4796 81.7876 47.0594 81.1135L46.7668 89.1082ZM88.9834 50.5789C90.1603 27.0109 71.4431 7.85206 48.4869 7.8124L48.473 15.8124C66.9112 15.8442 81.9398 31.227 80.9933 50.1799L88.9834 50.5789Z" fill="#FF8F33" mask="url(#path-3-inside-2_485_597)"/>
</svg>
