<svg width="59" height="41" viewBox="0 0 59 41" fill="none" xmlns="http://www.w3.org/2000/svg">
<path d="M29.4102 0.0143761C34.4538 -0.0444604 39.4062 0.113946 44.3494 0.362869C46.6569 0.480542 48.9735 0.530327 51.2582 0.87882C55.034 1.45813 58.2672 4.8435 58.5408 8.62714C58.9193 13.8907 59.1336 19.1634 58.9102 24.4406C58.8144 26.6809 58.7323 28.9167 58.6503 31.157C58.4998 35.3978 55.8412 38.8193 51.8783 39.8467C50.5513 40.1907 49.1787 40.2088 47.8198 40.3129C40.6648 40.8695 33.4961 41.0687 26.3229 40.9782C21.4982 40.9193 16.6781 40.7383 11.8671 40.3491C10.2026 40.2133 8.51531 40.2223 6.88732 39.7879C3.45348 38.8736 0.767514 35.8322 0.452859 32.3111C0.0698016 28.007 -0.0122822 23.6893 0.00139846 19.3671C0.0150791 15.9681 0.174686 12.5737 0.352535 9.18382C0.589666 4.65341 4.14207 1.11869 8.71596 0.752096C12.1817 0.476016 15.652 0.294981 19.1269 0.172782C22.5836 0.0505832 26.0402 -0.0354086 29.4102 0.0143761ZM38.786 20.3673C33.6877 17.4526 28.676 14.5923 23.6187 11.7002C23.6187 17.5069 23.6187 23.2231 23.6187 29.0344C28.6851 26.1378 33.6968 23.2774 38.786 20.3673Z" fill="#FAFAFA"/>
</svg>
