<svg width="193" height="173" viewBox="0 0 193 173" fill="none" xmlns="http://www.w3.org/2000/svg">
<path d="M175.898 113.656C173.776 113.656 171.65 113.703 169.527 113.638C168.375 113.601 168.043 113.903 168.021 115.159C167.886 123.49 161.669 130.061 153.461 130.705C145.402 131.338 138.313 125.957 136.792 117.873C135.771 112.441 137.299 107.678 141.241 103.771C141.97 103.05 142.452 102.385 142.528 101.326C143.921 82.2795 136.741 67.2898 120.58 57.1244C93.2564 39.9445 56.7948 56.3204 51.0187 88.1043C50.2128 92.543 50.0487 96.989 50.5628 101.479C50.6759 102.468 51.0843 103.109 51.7698 103.774C56.6051 108.475 57.8997 115.883 54.9788 121.849C51.9923 127.951 45.5598 131.454 38.821 130.647C32.1369 129.846 26.6817 124.844 25.2887 118.215C25.1392 117.509 25.0991 116.774 25.0371 116.054C24.8366 113.66 24.8438 113.667 22.335 113.656C18.4515 113.634 14.5606 113.747 10.688 113.529C4.8025 113.201 0.269865 108.501 0.0948312 102.628C-0.0327974 98.3934 -0.0255043 94.1511 0.0802451 89.9126C0.22246 84.3605 5.07599 79.5689 10.8412 79.3288C14.7794 79.1651 18.7286 79.2269 22.6742 79.2852C23.9504 79.3033 24.5521 79.0123 24.9022 77.6443C26.5687 71.1063 29.1395 64.9176 32.6401 59.1364C33.26 58.1104 33.1689 57.5064 32.3192 56.6842C29.5734 54.0282 26.8932 51.3068 24.2239 48.5781C20.0158 44.2704 19.6402 37.7688 23.6223 33.2646C26.627 29.8665 29.8615 26.6357 33.2418 23.6086C37.4463 19.8466 44.2434 20.1996 48.3494 24.1507C51.1426 26.8394 53.8921 29.5827 56.5906 32.366C57.3891 33.1918 57.9908 33.3847 59.0447 32.7589C64.9046 29.2625 71.1657 26.683 77.7769 24.9948C79.0532 24.671 79.3668 24.0889 79.3413 22.8591C79.261 19.29 79.3084 15.7136 79.3121 12.1408C79.3194 5.71922 83.1592 1.06223 89.5443 0.385511C94.3577 -0.123847 99.2513 -0.167507 104.072 0.461915C109.498 1.16774 113.487 5.69739 113.648 11.1657C113.765 15.1605 113.717 19.159 113.677 23.1538C113.666 24.1616 113.943 24.6237 114.997 24.8929C121.667 26.592 128.015 29.1061 133.893 32.7116C135.02 33.4029 135.644 33.1737 136.493 32.2859C139.053 29.6191 141.712 27.0468 144.341 24.4454C148.844 19.9885 155.612 19.763 160.254 24.0598C163.321 26.8976 166.296 29.8519 169.152 32.9044C173.112 37.1394 173.105 43.8629 169.163 48.1233C166.446 51.0594 163.58 53.8572 160.721 56.6514C159.897 57.4591 159.718 58.0595 160.356 59.1109C163.886 64.9431 166.461 71.1973 168.153 77.7935C168.463 79.0014 168.98 79.3033 170.133 79.2815C173.714 79.2197 177.294 79.2342 180.875 79.2633C188.037 79.3215 192.851 84.0622 192.964 91.2078C193.018 94.7806 193.018 98.3534 192.964 101.926C192.865 108.431 188.413 113.136 181.907 113.576C179.913 113.711 177.903 113.598 175.901 113.598C175.901 113.616 175.901 113.634 175.898 113.656ZM83.4728 18.5041C83.4728 20.6835 83.4764 22.8628 83.4728 25.0421C83.4655 27.6144 83.2285 27.9273 80.7634 28.513C73.0948 30.3358 65.8637 33.2028 59.2525 37.5141C57.772 38.4819 56.6489 38.3691 55.42 37.0994C52.3861 33.9632 49.2829 30.8961 46.1834 27.8217C42.7046 24.369 38.3834 24.3217 34.9192 27.7235C32.4979 30.1029 30.1021 32.5078 27.7465 34.9491C24.1656 38.6529 24.2057 42.6441 27.8267 46.2824C30.733 49.2039 33.6721 52.0927 36.593 55.0033C38.5548 56.9571 38.6168 57.3573 37.1801 59.6785C33.1616 66.1583 30.2626 73.1001 28.4867 80.5149C27.8595 83.1417 27.4365 83.4983 24.8001 83.5019C20.4315 83.5128 16.0593 83.4546 11.6944 83.5201C7.26027 83.5856 4.33575 86.609 4.32481 91.0186C4.31387 94.6496 4.29564 98.2842 4.33575 101.915C4.3868 106.481 7.27485 109.399 11.8585 109.465C16.1068 109.523 20.355 109.457 24.6032 109.494C25.4856 109.501 25.9706 109.283 26.4119 108.42C30.1058 101.213 36.892 97.9932 44.7174 99.7941C46.1505 100.125 46.1797 99.7141 46.1104 98.5498C45.8588 94.2967 46.2417 90.0726 47.1424 85.9177C53.7025 55.5745 85.9415 38.2891 114.906 49.5677C134.889 57.35 147.936 77.3023 146.912 98.5826C146.853 99.805 146.981 100.107 148.341 99.7905C156.181 97.975 162.832 101.104 166.515 108.279C166.978 109.177 167.514 109.45 168.484 109.439C172.733 109.392 176.981 109.436 181.229 109.414C185.663 109.388 188.664 106.456 188.726 102.043C188.777 98.4116 188.774 94.7769 188.73 91.1459C188.668 86.3143 185.67 83.3964 180.813 83.3855C176.445 83.3746 172.073 83.3273 167.708 83.411C165.928 83.4473 165.027 82.7342 164.652 81.0424C162.927 73.2966 159.926 66.0637 155.652 59.3765C154.617 57.7575 154.828 56.5532 156.199 55.2398C159.353 52.2237 162.446 49.142 165.491 46.0168C168.769 42.6514 168.791 38.6056 165.556 35.2002C163.091 32.6097 160.571 30.0666 157.997 27.5889C154.613 24.3254 150.357 24.3945 146.999 27.709C143.98 30.6887 141 33.7121 137.999 36.7101C136.078 38.6311 135.739 38.7147 133.489 37.314C126.794 33.1482 119.61 30.1757 111.908 28.4657C110.18 28.0801 109.527 27.1378 109.556 25.395C109.626 21.0364 109.618 16.6777 109.567 12.3191C109.505 7.33098 106.544 4.43127 101.603 4.424C98.0225 4.41672 94.4416 4.39125 90.8643 4.43127C86.6015 4.47857 83.5457 7.54564 83.4947 11.7842C83.4546 14.0218 83.4764 16.2629 83.4728 18.5041ZM152.895 103.552C146.569 103.196 141.081 107.988 140.683 114.224C140.282 120.463 145.271 126.263 151.276 126.546C158.004 126.863 163.547 122.064 163.864 115.642C164.178 109.279 159.313 103.916 152.895 103.552ZM40.626 126.55C47.0221 126.565 52.4189 121.325 52.3569 115.159C52.2913 108.701 47.2408 103.592 40.8485 103.52C34.5181 103.447 29.1869 108.566 29.1723 114.74C29.1577 121.347 34.1899 126.539 40.626 126.55Z" fill="#FF8F33"/>
<path d="M96.5347 172.996C69.7764 172.996 43.0218 172.996 16.2636 172.996C13.3062 172.996 12.7921 172.476 12.7884 169.511C12.7848 164.304 12.7702 159.098 12.7921 153.891C12.8322 143.639 19.9648 135.38 30.186 134.47C37.3004 133.837 44.4914 134.001 51.6386 134.485C55.5148 134.747 58.866 136.402 61.8124 138.873C62.6183 139.549 63.0668 139.913 63.7414 138.6C68.4637 129.391 76.0703 124.774 86.4374 124.738C93.2929 124.716 100.152 124.68 107.008 124.745C117.174 124.847 124.562 129.53 129.204 138.502C129.813 139.677 130.097 139.83 131.133 138.927C134.852 135.686 139.276 134.259 144.177 134.245C149.515 134.227 154.854 134.216 160.196 134.245C171.464 134.307 179.843 142.285 180.208 153.477C180.39 159.101 180.266 164.737 180.241 170.366C180.234 172.196 179.413 172.967 177.531 172.985C174.498 173.014 171.464 172.992 168.43 172.992C144.465 172.996 120.5 172.996 96.5347 172.996ZM96.3961 168.754C106.165 168.754 115.934 168.732 125.7 168.779C126.972 168.787 127.505 168.576 127.483 167.12C127.392 161.19 127.49 155.256 127.435 149.322C127.326 137.89 119.22 129.362 107.813 128.987C100.298 128.74 92.7678 128.922 85.245 128.958C83.9177 128.966 82.5867 129.046 81.2739 129.369C71.7273 131.72 65.634 139.426 65.6084 149.249C65.5938 155.121 65.6558 160.993 65.5683 166.866C65.5464 168.35 65.9074 168.805 67.4536 168.794C77.1023 168.717 86.7474 168.754 96.3961 168.754ZM39.1711 168.696C46.0266 168.696 52.8784 168.656 59.7339 168.728C61.094 168.743 61.466 168.383 61.4696 167.018C61.4842 159.938 61.2435 152.858 61.6082 145.782C61.6446 145.061 61.4587 144.497 60.9919 143.966C58.1112 140.663 54.5448 138.622 50.1143 138.538C44.0501 138.422 37.9823 138.407 31.9181 138.52C23.4545 138.676 17.1205 145.171 17.0403 153.651C16.9965 158.068 17.084 162.489 17.0002 166.906C16.9746 168.292 17.3174 168.75 18.787 168.732C25.5841 168.648 32.3776 168.696 39.1711 168.696ZM153.731 168.696C160.644 168.696 167.558 168.685 174.468 168.707C175.409 168.71 176.051 168.699 176.029 167.411C175.942 162.572 176.117 157.726 175.916 152.895C175.581 144.839 169.25 138.676 161.217 138.523C155.156 138.407 149.088 138.436 143.028 138.531C138.597 138.6 135.006 140.572 132.114 143.872C131.669 144.377 131.323 144.887 131.377 145.643C131.88 152.713 131.56 159.796 131.581 166.869C131.585 168.437 132.088 168.743 133.543 168.725C140.268 168.652 146.999 168.696 153.731 168.696Z" fill="#FF8F33"/>
<path d="M96.5092 119.081C85.6316 119.073 76.9565 110.349 76.92 99.3938C76.8872 88.8792 85.803 80.0673 96.4909 80.0528C107.285 80.0382 116.117 88.9047 116.117 99.7577C116.12 110.29 107.194 119.088 96.5092 119.081ZM96.5785 84.2513C88.2352 84.2077 81.2229 91.004 81.1865 99.1719C81.15 107.915 87.8086 114.838 96.3378 114.918C104.714 114.998 111.799 108.129 111.857 99.8741C111.919 91.2405 105.126 84.295 96.5785 84.2513Z" fill="#FF8F33"/>
</svg>
