<svg width="50" height="50" viewBox="0 0 50 50" fill="none" xmlns="http://www.w3.org/2000/svg">
<g clip-path="url(#clip0_574_942)">
<path d="M49.9994 25.024C50.007 38.4514 39.1253 49.9754 25.0475 50.0011C11.2925 50.0259 0.0784672 38.9601 -0.000578867 25.0821C-0.0777203 11.3432 11.0773 0.0992482 24.9437 0.00112676C38.6796 -0.0969947 49.9185 11.127 49.9994 25.024ZM24.9666 46.4383C36.7416 46.4688 46.3766 36.8757 46.4309 25.0688C46.4852 13.2818 36.8644 3.61066 25.0466 3.57065C13.2382 3.53064 3.59745 13.137 3.57554 24.9649C3.55364 36.8033 13.1211 46.4078 24.9666 46.4383Z" fill="#EBEDEF"/>
<path d="M16.3249 14.2904C16.6668 14.2761 17.1021 14.5648 17.4983 14.963C19.8611 17.335 22.2382 19.6938 24.5876 22.0801C24.9267 22.424 25.0876 22.4174 25.4219 22.0782C27.7942 19.6709 30.1885 17.2846 32.5818 14.8982C33.3294 14.1532 34.336 14.0837 35.0636 14.7029C35.8131 15.3412 35.9293 16.4005 35.3255 17.1779C35.1998 17.3398 35.0503 17.4846 34.9046 17.6304C32.5608 19.9777 30.2228 22.3297 27.8657 24.6618C27.5743 24.9504 27.6038 25.0866 27.8771 25.3581C30.2552 27.715 32.6161 30.0899 34.9855 32.4553C35.2932 32.763 35.5731 33.0859 35.6617 33.5241C35.8093 34.2558 35.6131 34.8797 35.0084 35.3389C34.4113 35.7924 33.6265 35.8305 33.0008 35.4342C32.7884 35.2998 32.598 35.1255 32.4189 34.9483C30.058 32.5963 27.6952 30.2461 25.3495 27.8788C25.0657 27.593 24.9295 27.6064 24.6543 27.8836C22.2858 30.2728 19.8973 32.642 17.5211 35.0236C16.9906 35.5551 16.3802 35.8305 15.6307 35.6495C14.4088 35.3532 13.8955 33.9023 14.645 32.8811C14.7659 32.7163 14.9164 32.5705 15.0612 32.4248C17.4154 30.0661 19.7658 27.7035 22.1325 25.3572C22.4077 25.0847 22.4315 24.9476 22.142 24.6608C19.7401 22.2821 17.3602 19.8824 14.9659 17.496C14.5526 17.0845 14.2812 16.6234 14.2955 16.029C14.3174 15.0611 15.0973 14.3076 16.3249 14.2904Z" fill="#EBEDEF"/>
</g>
<defs>
<clipPath id="clip0_574_942">
<rect width="50" height="50" fill="white"/>
</clipPath>
</defs>
</svg>
