<svg width="144" height="152" viewBox="0 0 144 152" fill="none" xmlns="http://www.w3.org/2000/svg">
<path d="M69.3571 102.751L73.2407 102.765C73.4907 103.794 73.7293 104.781 73.961 105.74C74.4245 107.657 74.8606 109.461 75.3054 111.266L75.306 111.268C78.0166 122.328 81.541 133.139 85.7027 143.753C87.4498 148.209 91.632 150.508 95.8054 149.672C101.619 148.505 104.869 142.8 102.878 137.155C102.364 135.697 101.804 134.184 101.238 132.655C100.487 130.624 99.7253 128.564 99.0439 126.564L99.0436 126.563C94.1937 112.3 90.7326 97.7051 88.1922 82.9071M69.3571 102.751L88.2254 59.5666L88.2411 57.5667C88.2406 57.5667 88.2401 57.5667 88.2396 57.5666C87.4452 57.5607 86.2313 57.7351 85.4935 58.8465C84.8769 59.7752 84.9911 60.8414 85.0564 61.3427L85.0565 61.3436C85.9944 68.5192 86.9591 75.7269 88.1922 82.9071M69.3571 102.751C69.0905 103.815 68.8393 104.827 68.5963 105.806C68.186 107.46 67.7988 109.02 67.3993 110.583L67.3992 110.584M69.3571 102.751L67.3992 110.584M88.1922 82.9071L90.1634 82.5687L88.1922 82.9072C88.1922 82.9072 88.1922 82.9071 88.1922 82.9071ZM71.2972 103.236L73.2373 103.722C72.9754 104.768 72.7262 105.772 72.4837 106.749C72.4266 106.979 72.3698 107.208 72.3134 107.435C72.2151 107.029 72.1159 106.618 72.0155 106.203C71.784 105.246 71.546 104.261 71.2972 103.236ZM71.2972 103.236L69.3536 103.708C69.6014 104.729 69.8389 105.711 70.0702 106.668C70.1319 106.923 70.1932 107.177 70.2542 107.429C70.3485 107.049 70.4437 106.666 70.5399 106.278C70.7827 105.3 71.033 104.292 71.2972 103.236ZM67.3992 110.584C64.5559 121.731 61.2127 132.717 57.2648 143.507C55.4401 148.493 50.8239 150.934 46.1639 149.667L46.1625 149.667C41.3125 148.352 38.3434 143.037 39.8864 138.304C40.5653 136.223 41.2659 134.133 41.9695 132.034C43.6223 127.104 45.2917 122.125 46.7344 117.098C50.8479 102.766 54.1374 88.2401 56.3773 73.4689L56.3774 73.4682L67.3992 110.584ZM18.7479 44.9219L18.7497 44.9229C30.3499 51.1801 42.5736 55.5941 55.5358 57.8264C55.7517 57.8635 56.0572 57.9218 56.3615 58.0323C56.6809 58.1483 57.1225 58.3648 57.4939 58.7972C58.2548 59.6831 58.1328 60.7638 58.073 61.2163C58.073 61.2168 58.0729 61.2174 58.0728 61.2179L56.0901 60.9557L18.7479 44.9219ZM18.7479 44.9219C15.2588 43.0445 14.1087 39.3927 15.7165 36.1876L15.7168 36.1869M18.7479 44.9219L15.7168 36.1869M15.7168 36.1869C17.2668 33.0938 20.983 31.84 24.5069 33.6334L15.7168 36.1869ZM75.9955 46.2974C89.2546 45.6251 101.722 42.0412 113.567 36.3153L24.5075 33.6337C28.3996 35.6167 32.3671 37.6058 36.5093 39.2795C49.1402 44.3889 62.2658 46.993 75.9955 46.2974L75.9955 46.2974Z" stroke="#FF8F33" stroke-width="4"/>
<path d="M88.7786 19.3331V19.3323C88.7985 9.77861 81.1449 2.03581 71.7455 2.00012C62.3098 1.96436 54.5265 9.67515 54.471 19.113M88.7786 19.3331L71.597 36.4597C62.058 36.4195 54.4154 28.6893 54.471 19.113M88.7786 19.3331C88.7627 28.8282 81.0622 36.4951 71.5978 36.4597L88.7786 19.3331ZM54.471 19.113L52.471 19.1012L54.471 19.113Z" stroke="#FF8F33" stroke-width="4"/>
</svg>
