<svg width="133" height="134" viewBox="0 0 133 134" fill="none" xmlns="http://www.w3.org/2000/svg">
<path d="M49.3226 2.00228L49.3138 2.00221C43.8543 1.95409 39.1019 2.69332 34.4997 4.1991C11.2274 11.8415 -2.18122 35.6128 3.17337 59.7327L49.3226 2.00228ZM49.3226 2.00228H49.3314M49.3226 2.00228H49.3314M49.3314 2.00228C70.1773 2.00228 88.8605 16.425 94.1738 37.3853L94.174 37.386M49.3314 2.00228L94.174 37.386M94.174 37.386C97.3467 49.8813 95.6321 61.7768 89.163 72.9746L89.1602 72.9794M94.174 37.386L89.1602 72.9794M89.1602 72.9794C88.8353 73.5454 88.4521 74.3777 88.6022 75.372C88.7493 76.3455 89.3436 77.0186 89.7537 77.4314L89.7564 77.4341M89.1602 72.9794L89.7564 77.4341M89.7564 77.4341C99.0522 86.7555 108.328 96.0908 117.606 105.429C121.583 109.432 125.561 113.435 129.541 117.438M89.7564 77.4341L129.541 117.438M77.1762 90.7466L77.1794 90.7498C90.3202 104.036 103.491 117.283 116.664 130.531L116.666 130.533M77.1762 90.7466L116.666 130.533M77.1762 90.7466C76.6936 90.2609 75.9538 89.5965 74.9024 89.4258M77.1762 90.7466L74.9024 89.4258M116.666 130.533C117.866 131.737 118.645 131.997 119.129 132C119.605 132.003 120.368 131.76 121.546 130.574L125.549 126.545L129.551 122.516C130.727 121.333 131.001 120.522 131 119.983C130.999 119.442 130.723 118.627 129.541 117.438M116.666 130.533L129.541 117.438M74.9024 89.4258C73.8112 89.2487 72.885 89.6752 72.2107 90.0748M74.9024 89.4258L72.2107 90.0748M72.2107 90.0748C45.1061 106.018 10.0448 90.623 3.17354 59.7335L72.2107 90.0748ZM48.7671 84.6114H48.7682C68.2908 84.5902 84.0395 68.7296 83.9869 49.149C83.9344 29.6664 68.1511 13.8172 48.7462 13.8172C29.2909 13.8172 13.4528 29.7693 13.5054 49.2796L13.5054 49.2807C13.5684 68.7724 29.3612 84.622 48.7671 84.6114Z" stroke="#FF8F33" stroke-width="4"/>
</svg>
