<svg width="39" height="41" viewBox="0 0 39 41" fill="none" xmlns="http://www.w3.org/2000/svg">
<path d="M0 0.0307458C3.5827 0.0307458 7.14902 0.0307458 10.7121 0.0307458C11.4463 0.0307458 11.6889 0.645877 12.0199 1.12614C15.0192 5.47482 18.0413 9.80706 20.9783 14.1985C21.6896 15.261 22.0535 15.3696 22.9123 14.3268C26.3802 10.1294 30.0252 6.0768 33.4145 1.82022C34.7781 0.106404 36.2564 -0.288333 38.3182 0.195219C38.21 0.813641 37.7249 1.18206 37.3676 1.60311C33.0867 6.67877 28.8124 11.7643 24.4692 16.7906C23.7055 17.6755 23.7448 18.2314 24.384 19.1525C29.0517 25.8564 33.6636 32.5965 38.2756 39.34C38.5608 39.7577 39.2262 40.1788 38.9181 40.7084C38.6296 41.2018 37.915 40.9288 37.3906 40.9321C34.565 40.9518 31.7395 40.8992 28.914 40.965C27.8684 40.988 27.2325 40.6393 26.6523 39.7643C23.7809 35.4617 20.798 31.2314 17.9627 26.9057C17.1498 25.6656 16.7499 25.8893 15.9468 26.8597C12.505 31.0077 8.87973 35.011 5.56909 39.2577C4.15305 41.0735 2.6059 41.0669 0.711296 40.8367C0.783409 40.0801 1.32098 39.7347 1.6881 39.3038C5.90015 34.3104 10.1122 29.3136 14.3833 24.3696C15.147 23.4847 15.2421 22.8926 14.5439 21.886C9.92536 15.215 5.37897 8.49127 0.822743 1.77746C0.501513 1.30377 0.00327786 0.902456 0 0.0307458ZM4.92007 2.72154C5.00529 3.08996 5.00529 3.14917 5.03152 3.18864C12.8066 14.6327 20.5817 26.0735 28.3601 37.511C28.5698 37.8202 28.7468 38.2084 29.1992 38.2084C30.789 38.2084 32.3885 38.386 33.9947 38.1064C33.939 37.863 33.9455 37.7413 33.8898 37.6623C26.0623 26.2544 18.2315 14.8498 10.4072 3.44193C10.1155 3.0143 9.80408 2.70509 9.23374 2.71167C7.83737 2.73469 6.441 2.72154 4.92007 2.72154Z" fill="#FAFAFA"/>
</svg>
