<svg width="42" height="41" viewBox="0 0 42 41" fill="none" xmlns="http://www.w3.org/2000/svg">
<path d="M11.4301 0H31.4592C31.8784 0 32.2976 0.108685 32.7168 0.201843C34.8621 0.592015 36.8474 1.59855 38.4301 3.0985C40.0127 4.59845 41.1243 6.52687 41.6289 8.64819C41.7997 9.25372 41.8153 9.87478 41.955 10.4958V30.4938C41.9216 30.6321 41.8957 30.772 41.8774 30.913C41.773 32.0193 41.4843 33.1004 41.0234 34.1115C40.1789 36.1759 38.728 37.9356 36.8623 39.1581C34.9967 40.3806 32.8041 41.0084 30.5742 40.9586C24.4878 41.0518 18.4015 40.9586 12.3151 40.9586C9.99942 40.9927 7.73257 40.2915 5.84063 38.9557C4.29217 37.9135 3.03106 36.4981 2.1736 34.8402C1.31614 33.1822 0.889935 31.3351 0.934292 29.4691C0.934292 23.4966 0.934292 17.5189 0.934292 11.5361C0.921158 10.7593 0.994059 9.98343 1.15166 9.22267C1.53785 7.07982 2.54141 5.09638 4.03912 3.51593C5.53682 1.93548 7.46348 0.826804 9.58249 0.326054C10.2501 0.155264 10.8246 0.139737 11.4301 0ZM38.3218 20.5104V11.6137C38.3459 10.6801 38.204 9.74958 37.9026 8.86556C37.3836 7.30775 36.3775 5.95811 35.0327 5.01593C33.6879 4.07375 32.0758 3.58897 30.4344 3.63317H12.4859C11.5762 3.64031 10.6738 3.79769 9.81538 4.09896C8.26948 4.63186 6.93131 5.63928 5.99173 6.97756C5.05215 8.31584 4.55913 9.91663 4.58299 11.5516C4.58299 17.5138 4.58299 23.4811 4.58299 29.4535C4.56129 30.3706 4.69785 31.2845 4.98668 32.1551C5.50758 33.7075 6.51254 35.0518 7.85394 35.9908C9.19534 36.9298 10.8025 37.4139 12.4393 37.372C18.4532 37.372 24.4619 37.372 30.4655 37.372C31.7258 37.4062 32.9747 37.1261 34.0997 36.5568C35.2246 35.9876 36.1901 35.1472 36.9089 34.1115C37.867 32.7504 38.3624 31.1175 38.3218 29.4535V20.5104Z" fill="#FBF9F9"/>
<path d="M31.9873 20.4954C31.9903 22.5867 31.3732 24.6318 30.2139 26.3723C29.0547 28.1128 27.4053 29.4705 25.4744 30.2736C23.5436 31.0767 21.4179 31.2892 19.3663 30.8843C17.3146 30.4793 15.4291 29.475 13.9482 27.9985C12.4673 26.5219 11.4575 24.6394 11.0465 22.589C10.6356 20.5385 10.8418 18.4122 11.6393 16.479C12.4367 14.5458 13.7895 12.8925 15.5266 11.7281C17.2637 10.5637 19.307 9.94057 21.3983 9.9375C24.1988 9.94564 26.8827 11.0596 28.8659 13.037C30.849 15.0143 31.9709 17.695 31.9873 20.4954V20.4954ZM28.3386 20.4954C28.3447 19.1232 27.943 17.7801 27.1845 16.6366C26.4259 15.4931 25.3448 14.6007 24.0782 14.0728C22.8116 13.5448 21.4167 13.405 20.0705 13.6712C18.7243 13.9374 17.4876 14.5976 16.5173 15.5679C15.547 16.5382 14.8868 17.7749 14.6206 19.1211C14.3544 20.4673 14.4942 21.8622 15.0222 23.1288C15.5501 24.3954 16.4425 25.4765 17.586 26.2351C18.7295 26.9936 20.0726 27.3953 21.4448 27.3892C23.276 27.3892 25.0327 26.6639 26.3304 25.3719C27.6282 24.08 28.3614 22.3266 28.3696 20.4954H28.3386Z" fill="#FBF9F9"/>
<path d="M32.515 6.86401C33.0379 6.87934 33.5446 7.04877 33.9715 7.35103C34.3984 7.65329 34.7265 8.07492 34.9146 8.56299C35.1027 9.05106 35.1425 9.58382 35.0289 10.0944C34.9153 10.605 34.6534 11.0707 34.2761 11.433C33.8988 11.7952 33.4229 12.038 32.9082 12.1308C32.3934 12.2236 31.8627 12.1622 31.3826 11.9545C30.9026 11.7467 30.4946 11.4018 30.2099 10.9629C29.9252 10.5241 29.7765 10.011 29.7824 9.48797C29.7884 9.13592 29.864 8.78854 30.0049 8.46582C30.1457 8.1431 30.3489 7.85142 30.6029 7.60755C30.8569 7.36367 31.1565 7.17243 31.4847 7.04483C31.8129 6.91722 32.163 6.85577 32.515 6.86401Z" fill="#FBF9F9"/>
</svg>
