<svg width="166" height="162" viewBox="0 0 166 162" fill="none" xmlns="http://www.w3.org/2000/svg">
<path d="M117.806 79.7277C117.853 75.9298 117.62 72.4384 116.606 69.0583C112.436 55.139 103.325 46.0667 89.113 43.0303C69.0475 38.7496 50.0987 51.7125 46.4039 71.1848C46.0874 72.8377 45.771 74.4998 45.8175 76.1898C45.8548 77.4898 45.4453 77.397 44.4867 76.8491C35.4776 71.6769 24.8306 72.8005 17.1431 79.7556C12.8433 83.6463 10.4142 88.5399 9.8093 94.2785C9.69762 95.3185 9.36257 95.5507 8.36673 95.5507C3.35034 95.56 0.558279 92.8671 0.548972 87.8992C0.539665 83.182 0.539665 78.4741 0.548972 73.7569C0.558279 69.2441 3.38756 66.4212 7.89208 66.4026C10.7307 66.3933 13.56 66.3562 16.3986 66.4212C17.5061 66.449 18.0552 65.9847 18.2972 64.9819C19.7956 58.779 22.2433 52.9475 25.5379 47.4875C26.087 46.5682 25.9846 45.8625 25.2215 45.1103C23.0995 43.021 21.0148 40.8853 18.9114 38.7681C16.2962 36.131 15.9611 32.3517 18.5019 29.6681C22.3829 25.5452 26.422 21.5616 30.545 17.6894C32.8531 15.5165 36.8736 15.7951 39.2748 18.0608C41.4805 20.1409 43.6211 22.2859 45.7152 24.4773C46.5621 25.3595 47.288 25.4337 48.3118 24.8209C53.7191 21.6173 59.4893 19.2587 65.5853 17.7266C66.7487 17.4387 67.1954 16.8258 67.1675 15.6187C67.1023 12.8422 67.1395 10.0565 67.1489 7.28005C67.1675 2.85073 69.9968 0.00928578 74.4082 0.00928578C79.3315 0 84.2549 0 89.1782 0C93.3849 0.00928578 96.2235 2.76716 96.2793 6.94576C96.3166 9.82435 96.3352 12.7029 96.27 15.5815C96.2421 16.7887 96.7167 17.4016 97.8708 17.6801C104.023 19.2123 109.811 21.6637 115.275 24.858C116.354 25.4895 117.062 25.2666 117.862 24.4216C119.751 22.4437 121.706 20.5309 123.651 18.618C126.955 15.3587 130.696 15.3494 134 18.5994C137.397 21.9516 140.775 25.313 144.145 28.6931C147.523 32.0731 147.504 35.8802 144.135 39.2603C142.209 41.201 140.301 43.1603 138.337 45.0546C137.537 45.8253 137.35 46.4939 137.965 47.506C141.241 52.9289 143.633 58.7233 145.178 64.8612C145.475 66.0405 146.08 66.449 147.281 66.4212C150.166 66.3469 153.051 66.3748 155.936 66.4026C159.892 66.4398 162.768 69.1512 162.833 73.0791C162.916 78.3905 162.898 83.702 162.833 89.0042C162.795 91.9756 160.832 94.3435 157.965 95.2442C157.007 95.5507 156.597 95.495 156.467 94.3249C155.88 89.2085 153.87 84.7234 150.315 80.9256C141.929 71.9648 127.876 71.1569 118.532 79.1241C118.402 79.2727 118.244 79.3841 117.806 79.7277Z" fill="#FF8F33"/>
<path d="M32.7971 161.962C28.0692 161.962 23.3506 161.934 18.6227 161.99C17.5617 161.999 17.2453 161.684 17.2918 160.653C17.3663 159.167 17.3477 157.672 17.2825 156.186C17.2081 154.311 16.0819 153.215 14.416 153.28C12.8897 153.336 11.8287 154.543 11.8008 156.298C11.7729 157.839 11.7729 159.371 11.8101 160.913C11.8287 161.628 11.6891 161.999 10.8422 161.981C8.40378 161.934 5.96538 161.999 3.53629 161.953C1.84244 161.916 0.548787 160.764 0.558094 159.046C0.604628 152.054 0.0369098 145.044 0.809379 138.079C1.81452 129.044 9.21347 121.718 18.3249 120.288C19.5534 120.093 20.7912 120 22.029 120C29.2418 120.009 36.4453 119.972 43.6582 120.009C53.9515 120.065 62.1509 126.667 64.4497 136.677C64.794 138.181 64.9336 139.704 64.9336 141.255C64.9243 146.956 64.9336 152.667 64.9243 158.369C64.9243 160.876 63.8168 161.944 61.2667 161.953C59.182 161.962 57.088 161.906 55.0032 161.971C53.9981 162.009 53.5793 161.749 53.6444 160.671C53.7282 159.186 53.6909 157.691 53.6537 156.205C53.5979 154.357 52.4811 153.215 50.8244 153.261C49.2888 153.308 48.2185 154.496 48.1906 156.261C48.1627 157.746 48.1254 159.241 48.1999 160.727C48.2464 161.702 47.93 161.99 46.9528 161.981C42.2435 161.934 37.5249 161.962 32.7971 161.962Z" fill="#FF8F33"/>
<path d="M132.576 120.009C137.211 120.009 140.84 119.991 144.47 120.009C155.722 120.074 164.731 128.376 165.55 139.565C166.016 145.954 165.69 152.361 165.699 158.759C165.708 160.82 164.433 161.935 162.386 161.963C160.152 161.981 157.909 161.916 155.676 161.99C154.633 162.028 154.428 161.628 154.475 160.709C154.54 159.27 154.531 157.83 154.484 156.391C154.419 154.45 153.274 153.243 151.618 153.271C150.045 153.299 148.975 154.497 148.91 156.382C148.863 157.719 148.826 159.065 148.919 160.403C149.003 161.582 148.714 162.009 147.402 162C138.104 161.935 128.807 161.953 119.5 161.99C118.439 161.99 117.974 161.805 118.067 160.625C118.178 159.242 118.113 157.849 118.085 156.456C118.048 154.506 116.959 153.271 115.302 153.271C113.702 153.271 112.622 154.432 112.557 156.317C112.501 157.849 112.51 159.39 112.548 160.932C112.566 161.675 112.343 161.99 111.542 161.972C109.104 161.925 106.666 162 104.237 161.935C102.552 161.898 101.379 160.793 101.379 159.13C101.351 152.287 101.109 145.425 101.482 138.59C101.966 129.676 109.811 121.718 119.007 120.316C123.818 119.582 128.714 120.232 132.576 120.009Z" fill="#FF8F33"/>
<path d="M83.3988 115.004C87.0564 115.144 91.533 114.772 96.0003 115.218C99.6486 115.58 102.887 116.964 105.866 119.053C106.713 119.647 106.256 119.907 105.754 120.325C100.542 124.559 97.294 129.964 96.1213 136.584C95.7676 138.59 95.7211 140.624 95.7304 142.657C95.749 147.022 95.7118 151.386 95.7583 155.75C95.7676 156.716 95.4884 157.022 94.5112 157.013C86.9541 156.976 79.3969 156.976 71.849 157.013C70.7508 157.022 70.5647 156.623 70.5554 155.639C70.4995 150.086 70.816 144.533 70.3878 138.98C69.7922 131.245 66.358 125.005 60.3085 120.167C58.8753 119.025 58.866 119.044 60.383 118.096C63.8917 115.896 67.7819 115.051 71.8676 115.014C75.4322 114.976 79.0153 115.004 83.3988 115.004Z" fill="#FF8F33"/>
<path d="M115.991 96.5539C115.982 86.9432 123.735 79.2174 133.423 79.1895C143.139 79.1617 151.022 86.9803 151.115 96.7304C151.208 106.165 143.018 114.299 133.497 114.225C123.679 114.15 116.001 106.406 115.991 96.5539Z" fill="#FF8F33"/>
<path d="M64.8493 91.6127C64.7655 82.2248 72.6484 74.2576 82.1228 74.1555C91.9136 74.044 99.8524 81.8812 99.9268 91.6963C99.992 101.205 92.1277 109.144 82.5696 109.219C72.7508 109.302 64.9331 101.539 64.8493 91.6127Z" fill="#FF8F33"/>
<path d="M32.7878 79.1895C42.5134 79.1895 50.3219 87.0452 50.3219 96.8139C50.3126 106.313 42.4297 114.169 32.8343 114.225C23.1458 114.29 15.1792 106.276 15.1885 96.4703C15.1978 87.0452 23.1924 79.1895 32.7878 79.1895Z" fill="#FF8F33"/>
</svg>
