<svg width="359" height="344" viewBox="0 0 359 344" fill="none" xmlns="http://www.w3.org/2000/svg">
<path d="M17.0537 3H158.574C165.985 3 172 9.02738 172 16.4536V172.49C172 172.49 172 325.052 17.8313 340.928C9.90503 341.745 3 335.529 3 327.54V297.44C3 290.775 7.86257 285.095 14.4397 284.137C40.6638 280.316 103.68 263.313 114.277 187.849C115.42 179.747 109.143 172.499 100.982 172.499H16.4259C9.01497 172.499 3 166.481 3 159.045V17.0827C3 9.30904 9.29604 3 17.0537 3Z" stroke="#FF7300" stroke-width="5"/>
<path d="M201.021 3H342.541C349.952 3 355.967 9.02738 355.967 16.4536V172.49C355.967 172.49 355.967 325.052 201.798 340.928C193.872 341.745 186.967 335.529 186.967 327.54V297.44C186.967 290.775 191.83 285.095 198.407 284.137C224.631 280.316 287.647 263.313 298.244 187.849C299.387 179.747 293.11 172.499 284.949 172.499H200.393C192.982 172.499 186.967 166.481 186.967 159.045V17.0827C186.967 9.30904 193.263 3 201.021 3Z" stroke="#FF7300" stroke-width="5"/>
</svg>
