<svg width="119" height="153" viewBox="0 0 119 153" fill="none" xmlns="http://www.w3.org/2000/svg">
<path d="M59.2066 112.09C57.6594 116.943 56.349 121.804 54.886 126.618C53.0494 132.662 51.1154 138.675 48.8551 144.572C46.929 149.597 43.1531 152.485 37.8826 152.939C32.9753 153.362 28.8389 151.518 26.0971 147.233C23.7736 143.597 23.1737 139.706 24.6867 135.534C31.8859 115.677 37.0195 95.2841 40.3639 74.4313C40.9349 70.8779 41.3217 67.2928 41.9085 63.7394C42.09 62.6509 41.819 62.2916 40.7849 62.104C33.7962 60.8385 27.0075 58.8491 20.3898 56.2706C15.2088 54.2495 10.1699 51.9114 5.28885 49.2457C0.32624 46.5404 -1.40778 40.5141 1.22088 35.3676C3.62588 30.6597 9.49365 28.7575 14.4484 31.3201C20.3688 34.3795 26.376 37.1932 32.7279 39.2275C43.7293 42.7545 54.9676 44.3026 66.511 43.2538C78.1097 42.1996 89.0085 38.7229 99.4626 33.6847C101.744 32.5856 103.888 31.1537 106.351 30.4774C112.182 28.8763 118.376 33.2857 118.945 39.3833C119.35 43.7399 117.5 47.2907 113.666 49.3012C102.994 54.8942 91.8424 59.1688 80.0201 61.602C78.9649 61.8187 77.4467 61.5545 76.9809 62.3893C76.5441 63.1714 77.0546 64.5003 77.1888 65.5835C79.4885 84.1827 83.1171 102.497 88.7612 120.385C90.3058 125.281 92.0608 130.102 93.8501 134.911C95.813 140.184 94.6027 145.713 90.7136 149.328C84.4406 155.158 73.3603 153.851 69.6212 144.342C65.6532 134.25 62.2825 123.96 59.6039 113.447C59.4855 112.99 59.3381 112.541 59.2066 112.09ZM59.2934 95.8627C59.375 95.868 59.4539 95.8733 59.5355 95.8786C60.0907 98.2458 60.6854 100.605 61.1958 102.983C64.1113 116.565 67.8609 129.896 73.0129 142.81C73.5024 144.036 74.026 145.235 74.9601 146.21C78.0124 149.394 82.7803 149.938 86.6167 147.523C90.6189 145.005 92.245 140.459 90.5899 136.229C88.2534 130.263 86.151 124.216 84.2959 118.081C80.1832 104.483 77.2914 90.6132 75.1732 76.5766C74.3865 71.3667 73.7734 66.1277 73.0945 60.9019C72.8498 59.0235 72.863 58.9839 74.7627 58.6933C78.8307 58.0724 82.8566 57.2587 86.8298 56.1834C95.7867 53.7661 104.252 50.1387 112.403 45.7372C114.503 44.6038 115.732 42.8918 115.656 40.4428C115.506 35.4601 110.527 32.2633 106.033 34.295C103.723 35.3385 101.51 36.5961 99.2179 37.6846C87.8324 43.0953 75.9126 46.5139 63.2903 47.1665C50.3286 47.8375 37.8563 45.4836 25.7866 40.8021C21.2976 39.0584 16.9533 36.995 12.6749 34.7784C8.6069 32.6728 4.42579 34.723 3.51273 39.1588C2.96542 41.8166 4.31264 44.4506 6.99655 45.9169C18.8558 52.3922 31.4175 56.8201 44.7661 58.9363C45.7291 59.0896 46.1106 59.4092 45.9528 60.4264C45.6528 62.3788 45.4502 64.347 45.1923 66.3073C43.132 82.0031 39.9797 97.4743 35.7802 112.734C33.5568 120.816 31.0281 128.802 28.2074 136.694C26.1918 142.332 29.1204 147.896 34.683 149.034C39.264 149.972 44.074 147.238 45.7291 142.813C50.9654 128.816 54.9491 114.451 58.3014 99.8996C58.6145 98.5496 58.9619 97.2101 59.2934 95.8627Z" fill="#FF8F33"/>
<path d="M59.2116 41.6077C47.4603 41.6156 38.2034 32.1469 38.3955 19.9623C38.5613 9.34168 47.8418 -0.0583428 59.2958 -0.000220158C70.7735 0.0579025 80.0725 9.41829 80.1067 21.0534C80.1383 32.1733 70.5551 41.6024 59.2116 41.6077ZM59.2616 37.5576C68.5685 37.5497 76.1203 30.1179 76.1413 20.9477C76.1598 11.6666 68.5106 4.0076 59.2327 4.01553C50.0311 4.02345 42.374 11.5926 42.3635 20.6888C42.3503 30.0545 49.8758 37.5629 59.2616 37.5576Z" fill="#FF8F33"/>
</svg>
