<svg width="118" height="152" viewBox="0 0 118 152" fill="none" xmlns="http://www.w3.org/2000/svg">
<path d="M58.2972 103.236C57.5848 106.081 56.9743 108.584 56.3371 111.078C53.4789 122.284 50.1162 133.335 46.143 144.195C43.9927 150.07 38.3868 153.159 32.6393 151.597C26.7282 149.995 23.0735 143.547 24.9849 137.684C27.2812 130.645 29.7678 123.669 31.812 116.546C35.9047 102.287 39.1744 87.8454 41.3999 73.169C42.0149 69.1038 42.5547 65.0298 43.0901 60.9557C43.2051 60.0858 42.9706 59.9305 42.1963 59.7974C29.0024 57.5251 16.5739 53.0339 4.80022 46.6831C0.428787 44.331 -1.19944 39.5335 0.928758 35.2908C3.01714 31.1236 7.98588 29.5969 12.4148 31.8514C16.3084 33.8352 20.2064 35.7879 24.2593 37.4255C36.6568 42.4404 49.4924 44.9789 62.8943 44.2999C75.8493 43.6431 88.0566 40.1415 99.6975 34.5142C101.702 33.5467 103.635 32.415 105.684 31.5496C109.029 30.1339 112.175 30.6576 114.882 33.0985C117.298 35.2775 118.064 38.9477 116.86 42.1164C116.17 43.9316 114.967 45.3162 113.237 46.2482C101.91 52.3593 90.0166 56.8994 77.3359 59.2515C76.6368 59.3802 75.9289 59.571 75.2254 59.5666C74.0927 59.5577 73.9113 60.0992 74.0397 61.0844C74.9777 68.2606 75.9378 75.4324 77.1634 82.5687C79.6898 97.285 83.1276 111.775 87.9371 125.919C89.145 129.465 90.5166 132.953 91.7643 136.49C94.158 143.276 90.2113 150.226 83.1984 151.633C77.9952 152.676 72.9114 149.764 70.8407 144.483C66.6507 133.796 63.0978 122.901 60.3634 111.744C59.6953 109.032 59.0449 106.316 58.2972 103.236Z" fill="#FF8F33"/>
<path d="M58.5894 38.4597C47.9396 38.4153 39.4091 29.779 39.471 19.1012C39.533 8.56101 48.2139 -0.0398033 58.7531 0.000138556C69.2747 0.0400804 77.8007 8.69859 77.7786 19.3364C77.7609 29.9343 69.164 38.4996 58.5894 38.4597Z" fill="#FF8F33"/>
</svg>
