<svg width="405" height="357" viewBox="0 0 405 357" fill="none" xmlns="http://www.w3.org/2000/svg">
<g opacity="0.95">
<path fill-rule="evenodd" clip-rule="evenodd" d="M102.507 327.423C102.507 327.423 102.421 327.337 102.206 327.251C102.893 325.407 101.949 316.446 100.79 312.715C97.1004 301.224 91.8228 296.293 91.8228 296.293C91.8228 296.293 87.9612 299.938 93.1529 315.674C93.9253 318.032 96.8429 322.963 99.2457 325.708C96.4139 324.507 91.737 323.049 85.3009 322.706C81.3535 322.492 71.914 324.335 71.6136 325.536C71.1416 327.594 81.2677 331.153 84.7432 331.367C100.318 332.354 102.507 327.423 102.507 327.423Z" fill="#B6843A"/>
<path fill-rule="evenodd" clip-rule="evenodd" d="M79.3787 311.728C79.3787 311.728 79.2928 311.643 79.1212 311.514C80.0652 309.799 80.623 300.794 80.0652 296.935C78.2631 284.972 73.8437 279.227 73.8437 279.227C73.8437 279.227 69.4671 282.142 72.0416 298.565C72.4277 301.009 74.5302 306.411 76.4181 309.499C73.8007 307.826 69.4242 305.597 63.1598 304.182C59.2982 303.281 49.687 303.539 49.215 304.696C48.4427 306.626 57.7964 311.857 61.229 312.672C76.4181 316.273 79.3787 311.728 79.3787 311.728Z" fill="#B6843A"/>
<path fill-rule="evenodd" clip-rule="evenodd" d="M59.0839 292.434C59.0839 292.434 58.9981 292.349 58.8694 292.177C60.1137 290.634 62.0874 281.844 62.1303 277.984C62.3019 265.893 58.8694 259.504 58.8694 259.504C58.8694 259.504 54.0638 261.648 53.978 278.285C53.978 280.772 55.1365 286.432 56.5095 289.776C54.1925 287.718 50.2451 284.759 44.281 282.315C40.591 280.814 31.1086 279.399 30.4649 280.471C29.3923 282.272 37.802 288.961 41.0201 290.333C55.4368 296.379 59.0839 292.434 59.0839 292.434Z" fill="#B6843A"/>
<path fill-rule="evenodd" clip-rule="evenodd" d="M42.2211 269.922C42.2211 269.922 42.1782 269.836 42.0495 269.621C43.5083 268.292 46.898 259.974 47.5845 256.158C49.6869 244.237 47.37 237.377 47.37 237.377C47.37 237.377 42.3069 238.706 39.518 255.086C39.0889 257.53 39.3464 263.318 40.1616 266.877C38.2308 264.433 34.7982 260.874 29.3061 257.444C25.9165 255.343 16.7773 252.342 15.962 253.328C14.589 254.914 21.7974 262.932 24.758 264.819C37.9733 273.223 42.2211 269.922 42.2211 269.922Z" fill="#B6843A"/>
<path fill-rule="evenodd" clip-rule="evenodd" d="M29.178 244.924C29.178 244.924 29.1351 244.796 29.0492 244.581C30.7226 243.509 35.3566 235.877 36.6438 232.232C40.677 220.827 39.4327 213.666 39.4327 213.666C39.4327 213.666 34.1981 214.138 28.7918 229.831C27.9766 232.189 27.333 237.935 27.5475 241.58C26.0458 238.836 23.2139 234.762 18.3654 230.474C15.3619 227.816 6.82342 223.357 5.87947 224.171C4.29191 225.5 10.0844 234.634 12.7017 236.992C24.4582 247.454 29.178 244.924 29.178 244.924Z" fill="#B6843A"/>
<path fill-rule="evenodd" clip-rule="evenodd" d="M20.3817 218.039C20.3817 218.039 20.3817 217.911 20.3388 217.696C22.1409 216.925 27.9762 210.193 29.8212 206.762C35.6137 196.172 35.5708 188.882 35.5708 188.882C35.5708 188.882 30.3361 188.453 22.4841 203.032C21.3256 205.219 19.7381 210.75 19.3519 214.395C18.2792 211.436 16.1768 206.977 12.1006 201.874C9.56911 198.744 1.88876 192.913 0.816085 193.556C-0.986009 194.585 3.26178 204.619 5.49295 207.363C15.3187 219.755 20.3817 218.039 20.3817 218.039Z" fill="#B6843A"/>
<path fill-rule="evenodd" clip-rule="evenodd" d="M16.0479 190.084C16.0479 190.084 16.0479 189.955 16.0479 189.741C17.9358 189.312 24.801 183.609 27.1608 180.565C34.5838 171.089 35.7422 163.885 35.7422 163.885C35.7422 163.885 30.6792 162.599 20.5532 175.634C19.0514 177.606 16.5628 182.795 15.6189 186.311C15.0611 183.223 13.688 178.464 10.47 172.761C8.4963 169.245 1.84571 162.213 0.687225 162.642C-1.24359 163.371 1.33083 173.962 3.04711 177.049C10.7704 190.899 16.0479 190.084 16.0479 190.084Z" fill="#B6843A"/>
<path fill-rule="evenodd" clip-rule="evenodd" d="M16.2619 161.74C16.2619 161.74 16.2619 161.612 16.3048 161.397C18.2356 161.269 25.916 156.809 28.7479 154.194C37.5867 146.09 39.9037 139.186 39.9037 139.186C39.9037 139.186 35.0981 137.042 23.0412 148.234C21.2391 149.906 17.9782 154.623 16.4765 157.967C16.4336 154.837 15.8758 149.863 13.6017 143.731C12.2287 139.958 6.77948 131.854 5.57808 132.111C3.56145 132.497 4.37668 143.388 5.57808 146.733C10.9415 161.655 16.2619 161.74 16.2619 161.74Z" fill="#B6843A"/>
<path fill-rule="evenodd" clip-rule="evenodd" d="M48.0135 115.561C48.0135 115.561 43.637 112.645 29.9067 121.65C27.8472 122.979 23.8569 127.095 21.8402 130.14C22.2693 127.053 22.5267 122.079 21.2824 115.604C20.5101 111.616 16.4768 102.74 15.2325 102.783C13.173 102.826 12.2291 113.717 12.8727 117.19C15.7474 132.841 21.025 133.784 21.025 133.784C21.025 133.784 21.0679 133.656 21.1108 133.441C23.0416 133.656 31.3227 130.526 34.5407 128.467C44.6238 121.993 48.0135 115.561 48.0135 115.561Z" fill="#B6843A"/>
<path fill-rule="evenodd" clip-rule="evenodd" d="M59.8126 93.5639C59.8126 93.5639 55.951 89.9621 40.9764 96.5654C38.7453 97.5516 34.1542 100.939 31.6656 103.597C32.6096 100.596 33.6393 95.7507 33.4677 89.1903C33.339 85.1598 30.8075 75.6836 29.5632 75.5121C27.5465 75.212 24.8863 85.7601 24.9292 89.319C25.2296 105.227 30.2926 107.071 30.2926 107.071C30.2926 107.071 30.3355 106.985 30.4642 106.77C32.3521 107.285 41.0193 105.613 44.5377 104.112C55.4361 99.3525 59.8126 93.5639 59.8126 93.5639Z" fill="#B6843A"/>
<path fill-rule="evenodd" clip-rule="evenodd" d="M55.9522 73.6693C53.5923 74.2696 48.4864 76.8423 45.6545 79.029C47.0704 76.242 48.8725 71.6111 49.7736 65.0936C50.3314 61.1059 49.3445 51.3296 48.1431 50.9437C46.1694 50.3006 41.8358 60.2912 41.3209 63.8072C39.0468 79.5865 43.7237 82.202 43.7237 82.202C43.7237 82.202 43.8095 82.1163 43.9382 81.9448C45.6974 82.7595 54.5362 82.5879 58.2262 81.6875C69.7682 78.8575 75.0029 73.8836 75.0029 73.8836C75.0029 73.8836 71.7849 69.6816 55.9522 73.6693Z" fill="#B6843A"/>
<path fill-rule="evenodd" clip-rule="evenodd" d="M93.1522 57.0306C93.1522 57.0306 90.6636 52.3568 74.4018 53.6003C71.9561 53.7718 66.5498 55.4869 63.3747 57.1592C65.2197 54.6294 67.7512 50.3844 69.6821 44.1242C70.8835 40.2651 71.4412 30.4889 70.3686 29.8886C68.5236 28.9452 62.6453 38.0354 61.5726 41.4228C56.81 56.6018 60.9719 59.9892 60.9719 59.9892C60.9719 59.9892 61.0578 59.9034 61.2294 59.7319C62.8169 60.8467 71.57 62.1331 75.3887 61.8758C87.1881 61.0182 93.1522 57.0306 93.1522 57.0306Z" fill="#B6843A"/>
<path fill-rule="evenodd" clip-rule="evenodd" d="M113.791 43.3961C113.791 43.3961 112.075 38.3364 95.8557 36.8786C93.4529 36.6642 87.7891 37.3931 84.3995 38.5508C86.6307 36.364 89.8058 32.5907 92.7234 26.7164C94.5255 23.1146 96.6709 13.5528 95.684 12.8238C94.0107 11.5804 86.7594 19.5557 85.1718 22.7287C78.0063 36.8786 81.6105 40.952 81.6105 40.952C81.6105 40.952 81.6963 40.9091 81.9109 40.7376C83.3268 42.1097 91.7366 44.8539 95.5124 45.197C107.269 46.3547 113.791 43.3961 113.791 43.3961Z" fill="#B6843A"/>
<path fill-rule="evenodd" clip-rule="evenodd" d="M136.317 33.4485C136.317 33.4485 135.459 28.1744 119.669 24.0152C117.309 23.3721 111.645 23.2005 108.084 23.7151C110.615 21.9571 114.391 18.7412 118.21 13.4672C120.57 10.2084 124.217 1.16107 123.359 0.217746C121.943 -1.283 113.447 5.36315 111.388 8.236C102.034 21.0137 104.909 25.6017 104.909 25.6017C104.909 25.6017 105.038 25.5589 105.209 25.4731C106.368 27.0596 114.22 31.1759 117.91 32.1621C129.409 35.2922 136.317 33.4485 136.317 33.4485Z" fill="#B6843A"/>
<path fill-rule="evenodd" clip-rule="evenodd" d="M155.281 7.55097C154.981 5.49281 144.297 6.00735 140.95 7.12218C126.147 12.139 125.933 17.5845 125.933 17.5845C125.933 17.5845 132.884 19.1281 143.653 15.3977C147.386 14.1114 155.496 8.79444 155.281 7.55097Z" fill="#B6843A"/>
<path fill-rule="evenodd" clip-rule="evenodd" d="M148.416 332.782C141.25 323.135 134.686 320.262 134.686 320.262C134.686 320.262 132.197 324.978 142.108 338.142C143.61 340.114 147.944 343.845 151.033 345.603C147.944 345.431 143.095 345.56 136.874 347.361C133.055 348.476 124.731 353.321 124.86 354.564C125.074 356.665 135.758 356.708 139.148 355.722C148.502 353.107 152.235 350.019 153.693 348.047C162.961 351.22 172.444 353.364 182.012 354.436C183.6 353.235 185.101 352.978 186.088 351.263C175.276 350.491 164.549 348.476 154.251 345.174C153.693 342.43 150.475 335.569 148.416 332.782Z" fill="#B6843A"/>
<path fill-rule="evenodd" clip-rule="evenodd" d="M127.864 338.957C127.864 338.957 127.778 338.914 127.564 338.828C127.907 336.856 125.59 328.194 123.831 324.764C118.339 314.044 112.332 310.1 112.332 310.1C112.332 310.1 109.114 314.345 116.794 328.966C117.953 331.153 121.643 335.569 124.389 337.842C121.385 337.156 116.537 336.47 110.144 337.199C106.196 337.628 97.1856 341.015 97.0998 342.301C96.9711 344.402 107.526 346.246 111.002 345.86C126.491 344.231 127.864 338.957 127.864 338.957Z" fill="#B6843A"/>
<path fill-rule="evenodd" clip-rule="evenodd" d="M319.701 322.706C313.265 323.049 308.588 324.507 305.756 325.708C308.116 322.963 311.077 318.032 311.849 315.674C317.041 299.938 313.179 296.293 313.179 296.293C313.179 296.293 307.901 301.181 304.211 312.715C303.01 316.403 302.109 325.364 302.795 327.251C302.624 327.38 302.495 327.423 302.495 327.423C302.495 327.423 304.683 332.397 320.259 331.41C323.734 331.196 333.817 327.637 333.388 325.579C333.131 324.335 323.691 322.492 319.701 322.706Z" fill="#B6843A"/>
<path fill-rule="evenodd" clip-rule="evenodd" d="M341.842 304.225C335.577 305.64 331.201 307.869 328.584 309.542C330.471 306.454 332.574 301.052 332.96 298.608C335.534 282.185 331.158 279.27 331.158 279.27C331.158 279.27 326.739 285.015 324.936 296.978C324.379 300.837 324.894 309.799 325.88 311.557C325.709 311.686 325.623 311.771 325.623 311.771C325.623 311.771 328.584 316.316 343.816 312.715C347.205 311.9 356.602 306.712 355.83 304.739C355.315 303.582 345.703 303.324 341.842 304.225Z" fill="#B6843A"/>
<path fill-rule="evenodd" clip-rule="evenodd" d="M360.677 282.272C354.713 284.716 350.765 287.675 348.448 289.733C349.821 286.346 351.023 280.686 350.98 278.242C350.851 261.605 346.088 259.461 346.088 259.461C346.088 259.461 342.656 265.85 342.828 277.942C342.87 281.843 344.887 290.591 346.088 292.134C345.96 292.306 345.874 292.392 345.874 292.392C345.874 292.392 349.521 296.379 363.938 290.29C367.156 288.918 375.566 282.186 374.493 280.428C373.892 279.357 364.367 280.771 360.677 282.272Z" fill="#B6843A"/>
<path fill-rule="evenodd" clip-rule="evenodd" d="M375.738 257.444C370.246 260.874 366.813 264.433 364.882 266.877C365.698 263.318 365.955 257.53 365.526 255.086C362.737 238.706 357.674 237.377 357.674 237.377C357.674 237.377 355.314 244.237 357.459 256.158C358.146 259.974 361.536 268.335 362.994 269.621C362.866 269.836 362.823 269.922 362.823 269.922C362.823 269.922 367.071 273.223 380.286 264.819C383.247 262.932 390.455 254.871 389.082 253.328C388.267 252.342 379.128 255.343 375.738 257.444Z" fill="#B6843A"/>
<path fill-rule="evenodd" clip-rule="evenodd" d="M386.55 230.431C381.702 234.719 378.913 238.793 377.368 241.537C377.583 237.892 376.939 232.146 376.124 229.788C370.718 214.095 365.483 213.623 365.483 213.623C365.483 213.623 364.282 220.827 368.272 232.189C369.559 235.877 374.236 243.509 375.867 244.538C375.781 244.753 375.738 244.881 375.738 244.881C375.738 244.881 380.458 247.411 392.171 236.906C394.789 234.548 400.581 225.415 398.994 224.085C398.092 223.314 389.554 227.773 386.55 230.431Z" fill="#B6843A"/>
<path fill-rule="evenodd" clip-rule="evenodd" d="M392.901 201.96C388.825 207.02 386.722 211.522 385.65 214.481C385.263 210.836 383.676 205.305 382.517 203.118C374.665 188.539 369.431 188.968 369.431 188.968C369.431 188.968 369.388 196.257 375.18 206.848C377.025 210.236 382.903 217.011 384.663 217.782C384.62 217.997 384.62 218.125 384.62 218.125C384.62 218.125 389.683 219.841 399.508 207.492C401.697 204.747 405.945 194.714 404.185 193.685C403.113 192.999 395.389 198.83 392.901 201.96Z" fill="#B6843A"/>
<path fill-rule="evenodd" clip-rule="evenodd" d="M404.314 162.685C403.155 162.256 396.505 169.288 394.531 172.804C391.313 178.507 389.94 183.266 389.382 186.354C388.438 182.838 385.95 177.606 384.448 175.677C374.365 162.599 369.259 163.928 369.259 163.928C369.259 163.928 370.417 171.132 377.84 180.608C380.243 183.652 387.065 189.355 388.953 189.784C388.953 189.998 388.953 190.127 388.953 190.127C388.953 190.127 394.231 190.984 401.911 177.135C403.67 173.962 406.245 163.414 404.314 162.685Z" fill="#B6843A"/>
<path fill-rule="evenodd" clip-rule="evenodd" d="M376.253 154.194C379.084 156.809 386.765 161.269 388.696 161.397C388.738 161.612 388.738 161.74 388.738 161.74C388.738 161.74 394.059 161.698 399.422 146.733C400.624 143.388 401.439 132.54 399.422 132.111C398.221 131.854 392.772 139.958 391.399 143.731C389.125 149.863 388.567 154.837 388.524 157.967C387.022 154.665 383.761 149.906 381.959 148.234C369.902 137.042 365.097 139.186 365.097 139.186C365.097 139.186 367.371 146.133 376.253 154.194Z" fill="#B6843A"/>
<path fill-rule="evenodd" clip-rule="evenodd" d="M370.374 128.467C373.592 130.569 381.873 133.656 383.804 133.441C383.847 133.656 383.89 133.784 383.89 133.784C383.89 133.784 389.125 132.841 392.042 117.19C392.686 113.674 391.742 102.826 389.682 102.783C388.438 102.74 384.405 111.616 383.632 115.604C382.388 122.036 382.646 127.01 383.075 130.14C381.058 127.138 377.068 122.979 375.008 121.65C361.321 112.645 356.901 115.561 356.901 115.561C356.901 115.561 360.377 121.993 370.374 128.467Z" fill="#B6843A"/>
<path fill-rule="evenodd" clip-rule="evenodd" d="M360.505 104.069C364.024 105.57 372.691 107.285 374.579 106.727C374.665 106.942 374.75 107.028 374.75 107.028C374.75 107.028 379.771 105.227 380.114 89.276C380.2 85.7171 377.497 75.169 375.48 75.4692C374.236 75.6407 371.704 85.0739 371.575 89.1474C371.404 95.7078 372.433 100.596 373.377 103.554C370.889 100.896 366.298 97.5086 364.067 96.5224C349.092 89.9192 345.23 93.5209 345.23 93.5209C345.23 93.5209 349.564 99.3524 360.505 104.069Z" fill="#B6843A"/>
<path fill-rule="evenodd" clip-rule="evenodd" d="M361.064 81.9448C361.192 82.1163 361.278 82.202 361.278 82.202C361.278 82.202 365.955 79.5436 363.681 63.8072C363.166 60.2912 358.833 50.3006 356.859 50.9437C355.7 51.3296 354.671 61.063 355.228 65.0936C356.129 71.6111 357.931 76.242 359.347 79.029C356.473 76.8423 351.41 74.2696 349.05 73.6693C333.217 69.6816 329.999 73.8836 329.999 73.8836C329.999 73.8836 335.234 78.8575 346.776 81.6875C350.509 82.5879 359.304 82.8023 361.064 81.9448Z" fill="#B6843A"/>
<path fill-rule="evenodd" clip-rule="evenodd" d="M343.814 59.7319C343.986 59.9034 344.072 59.9892 344.072 59.9892C344.072 59.9892 348.234 56.6018 343.471 41.4228C342.398 38.0354 336.477 28.9452 334.675 29.8886C333.56 30.446 334.16 40.2222 335.362 44.1242C337.293 50.3844 339.824 54.6722 341.669 57.1592C338.494 55.4869 333.045 53.7718 330.642 53.6003C314.38 52.3139 311.892 57.0306 311.892 57.0306C311.892 57.0306 317.856 61.0611 329.698 61.9187C333.474 62.176 342.184 60.8896 343.814 59.7319Z" fill="#B6843A"/>
<path fill-rule="evenodd" clip-rule="evenodd" d="M309.575 45.2399C313.394 44.854 321.761 42.1527 323.177 40.7806C323.348 40.9092 323.477 40.995 323.477 40.995C323.477 40.995 327.038 36.9644 319.916 22.7717C318.328 19.5987 311.034 11.6233 309.404 12.8668C308.417 13.6386 310.562 23.1576 312.364 26.7594C315.282 32.6337 318.457 36.407 320.688 38.5938C317.299 37.479 311.635 36.7072 309.232 36.9215C293.013 38.3794 291.297 43.4391 291.297 43.4391C291.297 43.4391 297.733 46.3548 309.575 45.2399Z" fill="#B6843A"/>
<path fill-rule="evenodd" clip-rule="evenodd" d="M287.092 32.1621C290.782 31.1759 298.634 27.0596 299.792 25.4731C300.007 25.5589 300.093 25.6017 300.093 25.6017C300.093 25.6017 302.967 21.0137 293.614 8.236C291.511 5.36315 283.058 -1.283 281.642 0.217746C280.784 1.11819 284.474 10.1655 286.791 13.4672C290.61 18.7841 294.343 21.9571 296.917 23.7151C293.356 23.2005 287.692 23.3721 285.332 24.0152C269.586 28.1744 268.685 33.4485 268.685 33.4485C268.685 33.4485 275.593 35.2922 287.092 32.1621Z" fill="#B6843A"/>
<path fill-rule="evenodd" clip-rule="evenodd" d="M261.39 15.3977C272.159 19.1281 279.11 17.5845 279.11 17.5845C279.11 17.5845 278.896 12.139 264.05 7.12218C260.746 6.00735 250.062 5.49281 249.719 7.55097C249.504 8.79444 257.614 14.1114 261.39 15.3977Z" fill="#B6843A"/>
<path fill-rule="evenodd" clip-rule="evenodd" d="M268.083 347.361C261.905 345.56 257.013 345.388 253.924 345.603C257.056 343.802 261.39 340.072 262.849 338.142C272.76 324.978 270.272 320.262 270.272 320.262C270.272 320.262 263.707 323.135 256.541 332.782C254.482 335.569 251.264 342.43 250.663 345.217C240.365 348.519 229.639 350.534 218.826 351.306C219.813 353.021 221.315 353.278 222.902 354.479C232.471 353.407 241.953 351.263 251.221 348.09C252.723 350.062 256.456 353.149 265.766 355.765C269.113 356.708 279.84 356.665 280.054 354.607C280.226 353.321 271.902 348.476 268.083 347.361Z" fill="#B6843A"/>
<path fill-rule="evenodd" clip-rule="evenodd" d="M294.9 337.242C288.507 336.513 283.659 337.156 280.655 337.885C283.444 335.569 287.134 331.196 288.25 329.009C295.887 314.345 292.712 310.143 292.712 310.143C292.712 310.143 286.705 314.087 281.213 324.807C279.454 328.237 277.094 336.942 277.48 338.871C277.266 338.957 277.18 339 277.18 339C277.18 339 278.553 344.274 294.085 345.903C297.561 346.289 308.073 344.445 307.987 342.344C307.858 341.058 298.848 337.67 294.9 337.242Z" fill="#B6843A"/>
</g>
</svg>
